%TF.GenerationSoftware,KiCad,Pcbnew,9.0.1*%
%TF.CreationDate,2025-06-30T00:43:26+02:00*%
%TF.ProjectId,led_sign_controller,6c65645f-7369-4676-9e5f-636f6e74726f,1.0*%
%TF.SameCoordinates,PX27ac400PY2c70f40*%
%TF.FileFunction,Legend,Bot*%
%TF.FilePolarity,Positive*%
%FSLAX46Y46*%
G04 Gerber Fmt 4.6, Leading zero omitted, Abs format (unit mm)*
G04 Created by KiCad (PCBNEW 9.0.1) date 2025-06-30 00:43:26*
%MOMM*%
%LPD*%
G01*
G04 APERTURE LIST*
%ADD10C,0.150000*%
%ADD11C,0.120000*%
G04 APERTURE END LIST*
D10*
X55394819Y-95306666D02*
X56109104Y-95306666D01*
X56109104Y-95306666D02*
X56251961Y-95259047D01*
X56251961Y-95259047D02*
X56347200Y-95163809D01*
X56347200Y-95163809D02*
X56394819Y-95020952D01*
X56394819Y-95020952D02*
X56394819Y-94925714D01*
X56394819Y-96306666D02*
X56394819Y-95735238D01*
X56394819Y-96020952D02*
X55394819Y-96020952D01*
X55394819Y-96020952D02*
X55537676Y-95925714D01*
X55537676Y-95925714D02*
X55632914Y-95830476D01*
X55632914Y-95830476D02*
X55680533Y-95735238D01*
D11*
%TO.C,J1*%
X29390000Y-91080000D02*
X29390000Y-100200000D01*
X29390000Y-100200000D02*
X55050000Y-100200000D01*
X30690000Y-92390000D02*
X30690001Y-98890000D01*
X30690001Y-98890000D02*
X40170000Y-98890000D01*
X40170000Y-98890000D02*
X40170000Y-98890000D01*
X40170000Y-98890000D02*
X40170000Y-100200000D01*
X44270000Y-98890000D02*
X53750000Y-98890000D01*
X44270000Y-100200000D02*
X44270000Y-98890000D01*
X49340000Y-101590000D02*
X49840000Y-100590000D01*
X49840000Y-100590000D02*
X50340000Y-101590000D01*
X50340000Y-101590000D02*
X49340000Y-101590000D01*
X53750000Y-92390000D02*
X30690000Y-92390000D01*
X53750000Y-98890000D02*
X53750000Y-92390000D01*
X55050000Y-91080000D02*
X29390000Y-91080000D01*
X55050000Y-100200000D02*
X55050000Y-91080000D01*
%TD*%
M02*
