%TF.GenerationSoftware,KiCad,Pcbnew,9.0.1*%
%TF.CreationDate,2025-06-30T00:43:26+02:00*%
%TF.ProjectId,led_sign_controller,6c65645f-7369-4676-9e5f-636f6e74726f,1.0*%
%TF.SameCoordinates,PX27ac400PY2c70f40*%
%TF.FileFunction,Soldermask,Bot*%
%TF.FilePolarity,Negative*%
%FSLAX46Y46*%
G04 Gerber Fmt 4.6, Leading zero omitted, Abs format (unit mm)*
G04 Created by KiCad (PCBNEW 9.0.1) date 2025-06-30 00:43:26*
%MOMM*%
%LPD*%
G01*
G04 APERTURE LIST*
G04 Aperture macros list*
%AMRoundRect*
0 Rectangle with rounded corners*
0 $1 Rounding radius*
0 $2 $3 $4 $5 $6 $7 $8 $9 X,Y pos of 4 corners*
0 Add a 4 corners polygon primitive as box body*
4,1,4,$2,$3,$4,$5,$6,$7,$8,$9,$2,$3,0*
0 Add four circle primitives for the rounded corners*
1,1,$1+$1,$2,$3*
1,1,$1+$1,$4,$5*
1,1,$1+$1,$6,$7*
1,1,$1+$1,$8,$9*
0 Add four rect primitives between the rounded corners*
20,1,$1+$1,$2,$3,$4,$5,0*
20,1,$1+$1,$4,$5,$6,$7,0*
20,1,$1+$1,$6,$7,$8,$9,0*
20,1,$1+$1,$8,$9,$2,$3,0*%
G04 Aperture macros list end*
%ADD10C,0.650000*%
%ADD11O,1.000000X2.100000*%
%ADD12O,1.000000X1.600000*%
%ADD13C,2.700000*%
%ADD14C,3.700000*%
%ADD15R,1.700000X1.700000*%
%ADD16C,1.700000*%
%ADD17RoundRect,0.250000X1.330000X1.800000X-1.330000X1.800000X-1.330000X-1.800000X1.330000X-1.800000X0*%
%ADD18O,3.160000X4.100000*%
%ADD19RoundRect,0.250000X1.800000X-1.330000X1.800000X1.330000X-1.800000X1.330000X-1.800000X-1.330000X0*%
%ADD20O,4.100000X3.160000*%
%ADD21RoundRect,0.250000X0.600000X-0.600000X0.600000X0.600000X-0.600000X0.600000X-0.600000X-0.600000X0*%
G04 APERTURE END LIST*
D10*
%TO.C,J4*%
X127790000Y-103820000D03*
X133570000Y-103820000D03*
D11*
X126360000Y-103320000D03*
D12*
X126360000Y-107500000D03*
D11*
X135000000Y-103320000D03*
D12*
X135000000Y-107500000D03*
%TD*%
D13*
%TO.C,REF\u002A\u002A*%
X24500000Y-64500000D03*
%TD*%
D14*
%TO.C,REF\u002A\u002A*%
X110800000Y-105500000D03*
%TD*%
%TO.C,REF\u002A\u002A*%
X151600000Y-4500000D03*
%TD*%
%TO.C,REF\u002A\u002A*%
X9200000Y-105500000D03*
%TD*%
D15*
%TO.C,J6*%
X143850000Y-91850000D03*
D16*
X146390000Y-91850000D03*
X148929999Y-91850000D03*
%TD*%
D13*
%TO.C,REF\u002A\u002A*%
X82500000Y-64500000D03*
%TD*%
D14*
%TO.C,REF\u002A\u002A*%
X151600000Y-105500000D03*
%TD*%
D13*
%TO.C,REF\u002A\u002A*%
X24500000Y-15500000D03*
%TD*%
%TO.C,REF\u002A\u002A*%
X82500000Y-15500000D03*
%TD*%
D17*
%TO.C,J3*%
X11180000Y-89185000D03*
D18*
X7220000Y-89185000D03*
%TD*%
D14*
%TO.C,REF\u002A\u002A*%
X110800000Y-4500000D03*
%TD*%
D19*
%TO.C,J2*%
X151545000Y-20150000D03*
D20*
X151545000Y-16190000D03*
%TD*%
D15*
%TO.C,J7*%
X116600000Y-50550000D03*
D16*
X116600000Y-48010000D03*
X116600000Y-45470001D03*
X116600000Y-42930000D03*
X116600000Y-40390000D03*
X116600000Y-37850000D03*
X116600000Y-35310000D03*
X116600000Y-32769999D03*
X116600000Y-30230000D03*
%TD*%
D14*
%TO.C,REF\u002A\u002A*%
X9200000Y-4500000D03*
%TD*%
D21*
%TO.C,J1*%
X49840000Y-96910000D03*
D16*
X49840000Y-94370000D03*
X47300000Y-96910000D03*
X47300000Y-94370000D03*
X44760001Y-96910000D03*
X44760000Y-94370000D03*
X42220000Y-96910000D03*
X42220000Y-94370000D03*
X39680000Y-96910000D03*
X39680000Y-94370000D03*
X37140000Y-96910000D03*
X37140000Y-94370000D03*
X34600000Y-96910000D03*
X34600000Y-94370000D03*
%TD*%
M02*
