%TF.GenerationSoftware,KiCad,Pcbnew,9.0.1*%
%TF.CreationDate,2025-06-30T00:43:26+02:00*%
%TF.ProjectId,led_sign_controller,6c65645f-7369-4676-9e5f-636f6e74726f,1.0*%
%TF.SameCoordinates,PX27ac400PY2c70f40*%
%TF.FileFunction,Paste,Top*%
%TF.FilePolarity,Positive*%
%FSLAX46Y46*%
G04 Gerber Fmt 4.6, Leading zero omitted, Abs format (unit mm)*
G04 Created by KiCad (PCBNEW 9.0.1) date 2025-06-30 00:43:26*
%MOMM*%
%LPD*%
G01*
G04 APERTURE LIST*
G04 Aperture macros list*
%AMRoundRect*
0 Rectangle with rounded corners*
0 $1 Rounding radius*
0 $2 $3 $4 $5 $6 $7 $8 $9 X,Y pos of 4 corners*
0 Add a 4 corners polygon primitive as box body*
4,1,4,$2,$3,$4,$5,$6,$7,$8,$9,$2,$3,0*
0 Add four circle primitives for the rounded corners*
1,1,$1+$1,$2,$3*
1,1,$1+$1,$4,$5*
1,1,$1+$1,$6,$7*
1,1,$1+$1,$8,$9*
0 Add four rect primitives between the rounded corners*
20,1,$1+$1,$2,$3,$4,$5,0*
20,1,$1+$1,$4,$5,$6,$7,0*
20,1,$1+$1,$6,$7,$8,$9,0*
20,1,$1+$1,$8,$9,$2,$3,0*%
G04 Aperture macros list end*
%ADD10R,0.300000X1.150000*%
%ADD11O,1.000000X2.100000*%
%ADD12O,1.000000X1.600000*%
%ADD13RoundRect,0.225000X0.225000X0.250000X-0.225000X0.250000X-0.225000X-0.250000X0.225000X-0.250000X0*%
%ADD14R,1.700000X1.000000*%
%ADD15RoundRect,0.225000X-0.225000X-0.250000X0.225000X-0.250000X0.225000X0.250000X-0.225000X0.250000X0*%
%ADD16RoundRect,0.200000X-0.275000X0.200000X-0.275000X-0.200000X0.275000X-0.200000X0.275000X0.200000X0*%
%ADD17RoundRect,0.150000X-0.150000X-0.625000X0.150000X-0.625000X0.150000X0.625000X-0.150000X0.625000X0*%
%ADD18RoundRect,0.250000X-0.350000X-0.650000X0.350000X-0.650000X0.350000X0.650000X-0.350000X0.650000X0*%
%ADD19RoundRect,0.150000X0.875000X0.150000X-0.875000X0.150000X-0.875000X-0.150000X0.875000X-0.150000X0*%
%ADD20RoundRect,0.250000X-1.275000X-1.125000X1.275000X-1.125000X1.275000X1.125000X-1.275000X1.125000X0*%
%ADD21RoundRect,0.250000X-0.850000X-0.350000X0.850000X-0.350000X0.850000X0.350000X-0.850000X0.350000X0*%
%ADD22RoundRect,0.225000X0.250000X-0.225000X0.250000X0.225000X-0.250000X0.225000X-0.250000X-0.225000X0*%
%ADD23R,0.900000X1.500000*%
%ADD24R,1.500000X0.900000*%
%ADD25R,0.900000X0.900000*%
%ADD26RoundRect,0.200000X-0.200000X-0.275000X0.200000X-0.275000X0.200000X0.275000X-0.200000X0.275000X0*%
%ADD27RoundRect,0.200000X0.200000X0.275000X-0.200000X0.275000X-0.200000X-0.275000X0.200000X-0.275000X0*%
G04 APERTURE END LIST*
D10*
%TO.C,J4*%
X127330000Y-102755000D03*
X128130000Y-102755000D03*
X129430000Y-102755000D03*
X130430000Y-102755000D03*
X130930000Y-102755000D03*
X131930000Y-102755000D03*
X133230000Y-102755000D03*
X134030000Y-102755000D03*
X133730000Y-102755000D03*
X132930000Y-102755000D03*
X132430000Y-102755000D03*
X131430000Y-102755000D03*
X129930000Y-102755000D03*
X128930000Y-102755000D03*
X128430000Y-102755000D03*
X127630000Y-102755000D03*
D11*
X126360000Y-103320000D03*
D12*
X126360000Y-107500000D03*
D11*
X135000000Y-103320000D03*
D12*
X135000000Y-107500000D03*
%TD*%
D13*
%TO.C,C2*%
X140775000Y-37000000D03*
X139225000Y-37000000D03*
%TD*%
D14*
%TO.C,SW4*%
X83649999Y-108400000D03*
X77350001Y-108400000D03*
X83649999Y-104600000D03*
X77350001Y-104600000D03*
%TD*%
D15*
%TO.C,C5*%
X139225000Y-52000000D03*
X140775000Y-52000000D03*
%TD*%
D14*
%TO.C,SW5*%
X66850000Y-104600000D03*
X73150000Y-104600000D03*
X66850000Y-108400000D03*
X73150000Y-108400000D03*
%TD*%
D16*
%TO.C,R8*%
X95450000Y-99075000D03*
X95450000Y-100725000D03*
%TD*%
D17*
%TO.C,J5*%
X93000000Y-104500000D03*
X94000000Y-104500000D03*
X95000000Y-104500000D03*
X96000000Y-104500000D03*
D18*
X91700000Y-108375000D03*
X97300000Y-108375000D03*
%TD*%
D19*
%TO.C,U1*%
X102750000Y-92464999D03*
X102750000Y-91195000D03*
X102750000Y-89925000D03*
X102750001Y-88655000D03*
X102750000Y-87385000D03*
X102750000Y-86115000D03*
X102750000Y-84845000D03*
X102750000Y-83575000D03*
X102750001Y-82305000D03*
X102750000Y-81035000D03*
X102750000Y-79765000D03*
X102750000Y-78495001D03*
X93450000Y-78495001D03*
X93450000Y-79765000D03*
X93450000Y-81035000D03*
X93449999Y-82305000D03*
X93450000Y-83575000D03*
X93450000Y-84845000D03*
X93450000Y-86115000D03*
X93450000Y-87385000D03*
X93449999Y-88655000D03*
X93450000Y-89925000D03*
X93450000Y-91195000D03*
X93450000Y-92464999D03*
%TD*%
D13*
%TO.C,C3*%
X140775000Y-38750000D03*
X139225000Y-38750000D03*
%TD*%
%TO.C,C7*%
X148025000Y-63200000D03*
X146475000Y-63200000D03*
%TD*%
D20*
%TO.C,U5*%
X144585000Y-45475000D03*
X144585000Y-48525000D03*
X147935000Y-45475000D03*
X147935000Y-48525000D03*
D21*
X139960000Y-44720000D03*
X139960000Y-49280000D03*
%TD*%
D22*
%TO.C,C1*%
X137000000Y-32775000D03*
X137000000Y-31225000D03*
%TD*%
D15*
%TO.C,C4*%
X139225000Y-42000000D03*
X140775000Y-42000000D03*
%TD*%
D23*
%TO.C,U3*%
X151360000Y-66930000D03*
X150090000Y-66930000D03*
X148820000Y-66930000D03*
X147550000Y-66930000D03*
X146280000Y-66930000D03*
X145010000Y-66930000D03*
X143740000Y-66930000D03*
X142470000Y-66930000D03*
X141200000Y-66930000D03*
X139930000Y-66930000D03*
X138660000Y-66930000D03*
X137390000Y-66930000D03*
X136120000Y-66930000D03*
X134850000Y-66930000D03*
D24*
X133600000Y-68695001D03*
X133600000Y-69965000D03*
X133600000Y-71235000D03*
X133600001Y-72505000D03*
X133600000Y-73775000D03*
X133600000Y-75045000D03*
X133600000Y-76315000D03*
X133600000Y-77585000D03*
X133600001Y-78855000D03*
X133600000Y-80125000D03*
X133600000Y-81395000D03*
X133600000Y-82664999D03*
D23*
X134850000Y-84430000D03*
X136120000Y-84430000D03*
X137390000Y-84430000D03*
X138660000Y-84430000D03*
X139930000Y-84430000D03*
X141200000Y-84430000D03*
X142470000Y-84430000D03*
X143740000Y-84430000D03*
X145010000Y-84430000D03*
X146280000Y-84430000D03*
X147550000Y-84430000D03*
X148820000Y-84430000D03*
X150090000Y-84430000D03*
X151360000Y-84430000D03*
D25*
X145040000Y-72780000D03*
X143640000Y-72780000D03*
X142240000Y-72780000D03*
X142240000Y-72780000D03*
X145040000Y-74180000D03*
X145040000Y-74180000D03*
X143640000Y-74180000D03*
X142240000Y-74180000D03*
X145040000Y-75580000D03*
X143640000Y-75580000D03*
X142240000Y-75580000D03*
%TD*%
D26*
%TO.C,R10*%
X133175000Y-99500000D03*
X134825000Y-99500000D03*
%TD*%
D16*
%TO.C,R7*%
X97150000Y-99075000D03*
X97150000Y-100725000D03*
%TD*%
D19*
%TO.C,U2*%
X74810000Y-92464999D03*
X74810000Y-91195000D03*
X74810000Y-89925000D03*
X74810001Y-88655000D03*
X74810000Y-87385000D03*
X74810000Y-86115000D03*
X74810000Y-84845000D03*
X74810000Y-83575000D03*
X74810001Y-82305000D03*
X74810000Y-81035000D03*
X74810000Y-79765000D03*
X74810000Y-78495001D03*
X65510000Y-78495001D03*
X65510000Y-79765000D03*
X65510000Y-81035000D03*
X65509999Y-82305000D03*
X65510000Y-83575000D03*
X65510000Y-84845000D03*
X65510000Y-86115000D03*
X65510000Y-87385000D03*
X65509999Y-88655000D03*
X65510000Y-89925000D03*
X65510000Y-91195000D03*
X65510000Y-92464999D03*
%TD*%
D26*
%TO.C,R14*%
X128425000Y-84500000D03*
X130075000Y-84500000D03*
%TD*%
D27*
%TO.C,R9*%
X128325000Y-99500000D03*
X126675000Y-99500000D03*
%TD*%
D20*
%TO.C,U4*%
X144585000Y-30475000D03*
X144585000Y-33525000D03*
X147935000Y-30475000D03*
X147935000Y-33525000D03*
D21*
X139960000Y-29720000D03*
X139960000Y-34280000D03*
%TD*%
D26*
%TO.C,R11*%
X146425000Y-61550000D03*
X148075000Y-61550000D03*
%TD*%
M02*
