M48
; DRILL file {KiCad 9.0.1} date 2025-06-30T00:43:28+0200
; FORMAT={-:-/ absolute / inch / decimal}
; #@! TF.CreationDate,2025-06-30T00:43:28+02:00
; #@! TF.GenerationSoftware,Kicad,Pcbnew,9.0.1
; #@! TF.FileFunction,Plated,1,2,PTH
FMAT,2
INCH
; #@! TA.AperFunction,Plated,PTH,ViaDrill
T1C0.0118
; #@! TA.AperFunction,Plated,PTH,ViaDrill
T2C0.0157
; #@! TA.AperFunction,Plated,PTH,ComponentDrill
T3C0.0236
; #@! TA.AperFunction,Plated,PTH,ComponentDrill
T4C0.0394
; #@! TA.AperFunction,Plated,PTH,ComponentDrill
T5C0.0669
%
G90
G05
T1
X2.4941Y-3.5394
X2.9154Y-4.0315
X3.3268Y-4.0413
X3.4567Y-3.6752
X3.5915Y-3.5404
X4.3819Y-3.4902
X4.6339Y-2.7815
X4.8661Y-3.4902
X5.001Y-3.3268
X5.0413Y-2.565
X5.0561Y-3.9921
X5.1348Y-4.0837
X5.1614Y-2.2461
X5.1742Y-4.0846
X5.1791Y-2.2264
X5.1801Y-3.324
X5.1875Y-3.8194
X5.1969Y-2.2047
X5.2165Y-2.1831
X5.4173Y-1.872
X5.7591Y-3.426
X5.8591Y-2.5579
X5.8602Y-3.4045
X5.9094Y-3.4045
T2
X2.3829Y-3.1407
X2.3986Y-3.5315
X2.4301Y-3.6161
X2.4372Y-3.0876
X2.4793Y-2.9783
X2.4862Y-3.1407
X2.4862Y-3.6722
X2.4872Y-3.6142
X2.5118Y-3.0896
X2.5748Y-3.0236
X2.6427Y-3.0906
X2.6555Y-3.5167
X2.6555Y-3.6033
X2.8809Y-3.0896
X2.8809Y-3.1398
X3.0118Y-3.0896
X3.0118Y-3.1398
X3.0187Y-4.0561
X3.0344Y-3.5561
X3.0372Y-3.6154
X3.0709Y-3.1781
X3.1299Y-3.1998
X3.3553Y-4.0817
X3.4695Y-3.5827
X3.4803Y-2.8799
X3.498Y-2.8031
X3.5372Y-2.7654
X3.5443Y-3.6604
X3.5748Y-2.7244
X3.5787Y-2.8031
X3.5872Y-3.6154
X3.6063Y-3.0906
X3.6201Y-4.1132
X3.6329Y-4.065
X3.6407Y-3.9498
X3.6535Y-3.8701
X3.6594Y-4.1781
X3.7441Y-3.0896
X3.751Y-3.624
X3.7569Y-3.5659
X3.8602Y-4.0226
X3.8878Y-3.8691
X3.9606Y-3.0837
X3.9803Y-3.1585
X4.1112Y-3.1407
X4.1122Y-3.0915
X4.1358Y-3.564
X4.1372Y-3.6154
X4.1732Y-3.5157
X4.1939Y-3.6132
X4.2205Y-3.4646
X4.2372Y-2.8031
X4.2598Y-3.4114
X4.3327Y-2.8081
X4.3829Y-2.7205
X4.4045Y-2.8071
X4.4232Y-2.8406
X4.4636Y-2.752
X4.4656Y-3.3858
X4.4754Y-2.8533
X4.5551Y-3.5177
X4.5965Y-3.4469
X4.6437Y-3.5236
X4.6624Y-1.7372
X4.6634Y-1.6437
X4.6693Y-1.4409
X4.6713Y-1.1407
X4.6752Y-1.8376
X4.6781Y-1.2352
X4.6978Y-2.3967
X4.7037Y-3.4616
X4.7087Y-1.3425
X4.747Y-2.3494
X4.7608Y-2.4537
X4.8071Y-2.4075
X4.8228Y-2.5197
X4.8337Y-3.4498
X4.874Y-2.4685
X4.8839Y-2.5827
X4.8967Y-2.997
X4.9016Y-2.8652
X4.9365Y-3.0241
X4.9429Y-2.5256
X4.9567Y-2.1358
X4.9685Y-2.8691
X4.9754Y-2.999
X4.9754Y-3.5335
X4.9803Y-2.4872
X4.9862Y-3.873
X4.9862Y-3.9596
X5.0108Y-2.6161
X5.0177Y-3.997
X5.0876Y-2.686
X5.0886Y-2.0246
X5.1004Y-2.5404
X5.1063Y-3.9498
X5.1122Y-3.3917
X5.1388Y-3.501
X5.1634Y-2.6093
X5.1703Y-3.0709
X5.1919Y-3.1339
X5.1988Y-3.5019
X5.1988Y-2.0709
X5.2018Y-2.7539
X5.2225Y-3.5256
X5.2234Y-3.7461
X5.2362Y-1.877
X5.25Y-3.3917
X5.2608Y-3.2963
X5.2638Y-2.6594
X5.2707Y-3.9961
X5.2844Y-2.5748
X5.3051Y-1.812
X5.3081Y-3.9626
X5.3091Y-3.875
X5.3173Y-2.5472
X5.3219Y-1.9636
X5.3508Y-2.5472
X5.3524Y-1.7421
X5.375Y-2.7559
X5.375Y-3.2677
X5.377Y-2.6939
X5.3789Y-2.5728
X5.3799Y-1.8868
X5.3937Y-1.1781
X5.4006Y-2.0581
X5.4114Y-3.3976
X5.4213Y-1.81
X5.4252Y-1.7096
X5.4331Y-1.4567
X5.4331Y-1.5256
X5.435Y-2.5276
X5.4537Y-1.5748
X5.4587Y-2.4921
X5.4852Y-2.563
X5.5108Y-1.2254
X5.5118Y-1.0984
X5.5128Y-1.8268
X5.5325Y-2.1713
X5.5413Y-2.003
X5.5502Y-2.9203
X5.5502Y-2.9754
X5.5512Y-2.8661
X5.565Y-1.5955
X5.5719Y-3.4055
X5.5856Y-1.6535
X5.5886Y-2.0482
X5.5945Y-3.2648
X5.5994Y-2.8189
X5.5994Y-3.0256
X5.6014Y-1.8533
X5.6319Y-3.5157
X5.6545Y-2.8179
X5.6555Y-3.0256
X5.6752Y-2.1516
X5.6841Y-3.2736
X5.7037Y-3.3957
X5.7087Y-3.5138
X5.7106Y-2.8189
X5.7106Y-3.0217
X5.7116Y-2.3553
X5.7224Y-2.4705
X5.7539Y-2.8642
X5.7559Y-2.9193
X5.7559Y-2.9744
X5.7589Y-1.6969
X5.7589Y-2.002
X5.7884Y-2.5315
X5.8012Y-3.5364
X5.8209Y-2.6929
X5.8268Y-2.5748
X5.8268Y-3.2559
X5.8563Y-2.2992
X5.873Y-2.3839
X5.873Y-2.5157
X5.876Y-3.4951
X5.8996Y-2.6978
X5.9154Y-1.8504
X5.9577Y-3.3848
X5.9587Y-3.2687
X5.9872Y-2.6978
X5.9902Y-2.5748
X6.001Y-2.6339
X6.002Y-3.3268
T4
X1.3622Y-3.7154
X1.3622Y-3.8154
X1.4622Y-3.7154
X1.4622Y-3.8154
X1.5622Y-3.7154
X1.5622Y-3.8154
X1.6622Y-3.7154
X1.6622Y-3.8154
X1.7622Y-3.7154
X1.7622Y-3.8154
X1.8622Y-3.7154
X1.8622Y-3.8154
X1.9622Y-3.7154
X1.9622Y-3.8154
X4.5906Y-1.1902
X4.5906Y-1.2902
X4.5906Y-1.3902
X4.5906Y-1.4902
X4.5906Y-1.5902
X4.5906Y-1.6902
X4.5906Y-1.7902
X4.5906Y-1.8902
X4.5906Y-1.9902
X5.6634Y-3.6161
X5.7634Y-3.6161
X5.8634Y-3.6161
T5
X0.2843Y-3.5112
X0.4402Y-3.5112
X5.9663Y-0.6374
X5.9663Y-0.7933
T3
G00X4.9748Y-4.0461
M15
G01X4.9748Y-4.0894
M16
G05
G00X4.9748Y-4.2205
M15
G01X4.9748Y-4.2441
M16
G05
G00X5.315Y-4.0461
M15
G01X5.315Y-4.0894
M16
G05
G00X5.315Y-4.2205
M15
G01X5.315Y-4.2441
M16
G05
M30
