%TF.GenerationSoftware,KiCad,Pcbnew,9.0.1*%
%TF.CreationDate,2025-06-30T00:43:26+02:00*%
%TF.ProjectId,led_sign_controller,6c65645f-7369-4676-9e5f-636f6e74726f,1.0*%
%TF.SameCoordinates,PX27ac400PY2c70f40*%
%TF.FileFunction,Copper,L2,Bot*%
%TF.FilePolarity,Positive*%
%FSLAX46Y46*%
G04 Gerber Fmt 4.6, Leading zero omitted, Abs format (unit mm)*
G04 Created by KiCad (PCBNEW 9.0.1) date 2025-06-30 00:43:26*
%MOMM*%
%LPD*%
G01*
G04 APERTURE LIST*
G04 Aperture macros list*
%AMRoundRect*
0 Rectangle with rounded corners*
0 $1 Rounding radius*
0 $2 $3 $4 $5 $6 $7 $8 $9 X,Y pos of 4 corners*
0 Add a 4 corners polygon primitive as box body*
4,1,4,$2,$3,$4,$5,$6,$7,$8,$9,$2,$3,0*
0 Add four circle primitives for the rounded corners*
1,1,$1+$1,$2,$3*
1,1,$1+$1,$4,$5*
1,1,$1+$1,$6,$7*
1,1,$1+$1,$8,$9*
0 Add four rect primitives between the rounded corners*
20,1,$1+$1,$2,$3,$4,$5,0*
20,1,$1+$1,$4,$5,$6,$7,0*
20,1,$1+$1,$6,$7,$8,$9,0*
20,1,$1+$1,$8,$9,$2,$3,0*%
G04 Aperture macros list end*
%TA.AperFunction,HeatsinkPad*%
%ADD10O,1.000000X2.100000*%
%TD*%
%TA.AperFunction,HeatsinkPad*%
%ADD11O,1.000000X1.600000*%
%TD*%
%TA.AperFunction,ComponentPad*%
%ADD12R,1.700000X1.700000*%
%TD*%
%TA.AperFunction,ComponentPad*%
%ADD13C,1.700000*%
%TD*%
%TA.AperFunction,ComponentPad*%
%ADD14RoundRect,0.250000X1.330000X1.800000X-1.330000X1.800000X-1.330000X-1.800000X1.330000X-1.800000X0*%
%TD*%
%TA.AperFunction,ComponentPad*%
%ADD15O,3.160000X4.100000*%
%TD*%
%TA.AperFunction,ComponentPad*%
%ADD16RoundRect,0.250000X1.800000X-1.330000X1.800000X1.330000X-1.800000X1.330000X-1.800000X-1.330000X0*%
%TD*%
%TA.AperFunction,ComponentPad*%
%ADD17O,4.100000X3.160000*%
%TD*%
%TA.AperFunction,ComponentPad*%
%ADD18RoundRect,0.250000X0.600000X-0.600000X0.600000X0.600000X-0.600000X0.600000X-0.600000X-0.600000X0*%
%TD*%
%TA.AperFunction,ViaPad*%
%ADD19C,0.600000*%
%TD*%
%TA.AperFunction,ViaPad*%
%ADD20C,0.500000*%
%TD*%
%TA.AperFunction,Conductor*%
%ADD21C,0.500000*%
%TD*%
%TA.AperFunction,Conductor*%
%ADD22C,0.200000*%
%TD*%
G04 APERTURE END LIST*
D10*
%TO.P,J4,S1,SHIELD*%
%TO.N,GND*%
X126360000Y-103320000D03*
D11*
X126360000Y-107500000D03*
D10*
X135000000Y-103320000D03*
D11*
X135000000Y-107500000D03*
%TD*%
D12*
%TO.P,J6,1,Pin_1*%
%TO.N,GND*%
X143850000Y-91850000D03*
D13*
%TO.P,J6,2,Pin_2*%
%TO.N,/ESP32-S3 with USB-C/RX0*%
X146390000Y-91850000D03*
%TO.P,J6,3,Pin_3*%
%TO.N,/ESP32-S3 with USB-C/TX0*%
X148929999Y-91850000D03*
%TD*%
D14*
%TO.P,J3,1,Pin_1*%
%TO.N,GND*%
X11180000Y-89185000D03*
D15*
%TO.P,J3,2,Pin_2*%
%TO.N,+5V*%
X7220000Y-89185000D03*
%TD*%
D16*
%TO.P,J2,1,Pin_1*%
%TO.N,GND*%
X151545000Y-20150000D03*
D17*
%TO.P,J2,2,Pin_2*%
%TO.N,+12V*%
X151545000Y-16190000D03*
%TD*%
D12*
%TO.P,J7,1,Pin_1*%
%TO.N,GND*%
X116600000Y-50550000D03*
D13*
%TO.P,J7,2,Pin_2*%
%TO.N,/ESP32-S3 with USB-C/GPIO7*%
X116600000Y-48010000D03*
%TO.P,J7,3,Pin_3*%
%TO.N,/ESP32-S3 with USB-C/GPIO6*%
X116600000Y-45470001D03*
%TO.P,J7,4,Pin_4*%
%TO.N,/ESP32-S3 with USB-C/GPIO5*%
X116600000Y-42930000D03*
%TO.P,J7,5,Pin_5*%
%TO.N,/ESP32-S3 with USB-C/GPIO4*%
X116600000Y-40390000D03*
%TO.P,J7,6,Pin_6*%
%TO.N,/ESP32-S3 with USB-C/GPIO3*%
X116600000Y-37850000D03*
%TO.P,J7,7,Pin_7*%
%TO.N,/ESP32-S3 with USB-C/GPIO2*%
X116600000Y-35310000D03*
%TO.P,J7,8,Pin_8*%
%TO.N,/ESP32-S3 with USB-C/GPIO1*%
X116600000Y-32769999D03*
%TO.P,J7,9,Pin_9*%
%TO.N,+3.3V*%
X116600000Y-30230000D03*
%TD*%
D18*
%TO.P,J1,1,Pin_1*%
%TO.N,COLUMN_CLK_OUT*%
X49840000Y-96910000D03*
D13*
%TO.P,J1,2,Pin_2*%
%TO.N,ROW_7_OUT*%
X49840000Y-94370000D03*
%TO.P,J1,3,Pin_3*%
%TO.N,COLUMN_~{CLR}_OUT*%
X47300000Y-96910000D03*
%TO.P,J1,4,Pin_4*%
%TO.N,ROW_6_OUT*%
X47300000Y-94370000D03*
%TO.P,J1,5,Pin_5*%
%TO.N,unconnected-(J1-Pin_5-Pad5)*%
X44760001Y-96910000D03*
%TO.P,J1,6,Pin_6*%
%TO.N,ROW_5_OUT*%
X44760000Y-94370000D03*
%TO.P,J1,7,Pin_7*%
%TO.N,unconnected-(J1-Pin_7-Pad7)*%
X42220000Y-96910000D03*
%TO.P,J1,8,Pin_8*%
%TO.N,ROW_4_OUT*%
X42220000Y-94370000D03*
%TO.P,J1,9,Pin_9*%
%TO.N,unconnected-(J1-Pin_9-Pad9)*%
X39680000Y-96910000D03*
%TO.P,J1,10,Pin_10*%
%TO.N,ROW_3_OUT*%
X39680000Y-94370000D03*
%TO.P,J1,11,Pin_11*%
%TO.N,COLUMN_SER_OUT*%
X37140000Y-96910000D03*
%TO.P,J1,12,Pin_12*%
%TO.N,ROW_2_OUT*%
X37140000Y-94370000D03*
%TO.P,J1,13,Pin_13*%
%TO.N,GND*%
X34600000Y-96910000D03*
%TO.P,J1,14,Pin_14*%
%TO.N,ROW_1_OUT*%
X34600000Y-94370000D03*
%TD*%
D19*
%TO.N,GND*%
X88400000Y-73150000D03*
X146200000Y-74150000D03*
X118450000Y-41750000D03*
X105050000Y-90525000D03*
X148000000Y-65400000D03*
X92950000Y-106125000D03*
X88850000Y-71200000D03*
X145050000Y-71600000D03*
X138000000Y-38750000D03*
X142275000Y-47075000D03*
X125900000Y-54250000D03*
X140025000Y-46400000D03*
X134850000Y-98425000D03*
X63800000Y-78475000D03*
X146150000Y-72750000D03*
X136625000Y-65350000D03*
X152075000Y-68525000D03*
X126375000Y-89750000D03*
X118425000Y-44125000D03*
X147025000Y-64300000D03*
X151350000Y-83025000D03*
X63150000Y-93275000D03*
X136650000Y-47925000D03*
X152150000Y-65400000D03*
X141875000Y-42000000D03*
X148000000Y-82700000D03*
X138050000Y-64200000D03*
X143650000Y-76850000D03*
X111325000Y-69100000D03*
X152425000Y-66900000D03*
X131875000Y-79600000D03*
X139975000Y-31125000D03*
X92275000Y-103250000D03*
X147850000Y-68400000D03*
X126650000Y-100575000D03*
X122775000Y-87625000D03*
X95100000Y-78475000D03*
X118600000Y-36600000D03*
X60925000Y-89700000D03*
X144150000Y-54650000D03*
X131325000Y-78000000D03*
X117950000Y-89500000D03*
X107625000Y-71200000D03*
X124500000Y-72775000D03*
X63150000Y-79775000D03*
X133700000Y-67550000D03*
X65400000Y-76800000D03*
X116750000Y-87550000D03*
X150250000Y-47000000D03*
X76500000Y-79750000D03*
X144375000Y-83150000D03*
X77075000Y-90325000D03*
X142225000Y-71600000D03*
X126500000Y-63175000D03*
X115700000Y-89350000D03*
X127450000Y-101525000D03*
X127275000Y-66450000D03*
X145050000Y-76750000D03*
X137450000Y-86300000D03*
X129700000Y-100325000D03*
X141000000Y-72800000D03*
X88125000Y-91000000D03*
X98050000Y-102175000D03*
X146275000Y-50850000D03*
X92475000Y-100325000D03*
X140525000Y-55150000D03*
X149850000Y-68525000D03*
X136525000Y-70000000D03*
X118750000Y-46675000D03*
X140750000Y-50875000D03*
X152450000Y-84500000D03*
X130525000Y-88925000D03*
X149175000Y-60550000D03*
X151325000Y-85975000D03*
X143625000Y-71575000D03*
X126375000Y-76175000D03*
X140975000Y-75575000D03*
X131150000Y-66275000D03*
X134225000Y-65400000D03*
X113425000Y-86000000D03*
X133000000Y-47675000D03*
X95425000Y-90575000D03*
X129850000Y-86150000D03*
X101100000Y-80225000D03*
X140000000Y-27900000D03*
X62975000Y-75650000D03*
X126650000Y-98375000D03*
X110050000Y-71325000D03*
X98750000Y-98275000D03*
X73175000Y-78475000D03*
X120925000Y-62325000D03*
X85225000Y-103675000D03*
X60525000Y-79775000D03*
X138000000Y-37000000D03*
X136575000Y-68425000D03*
X124050000Y-65600000D03*
X139325000Y-65100000D03*
X137800000Y-43425000D03*
X145075000Y-59825000D03*
X108200000Y-86650000D03*
X107200000Y-88000000D03*
X113675000Y-72475000D03*
X90025000Y-92975000D03*
X149250000Y-88775000D03*
X146200000Y-75550000D03*
X141525000Y-86500000D03*
X126200000Y-72875000D03*
X76500000Y-78475000D03*
X119325000Y-60875000D03*
X136525000Y-83000000D03*
X123800000Y-62700000D03*
X135950000Y-44250000D03*
X132125000Y-69950000D03*
X142100000Y-82925000D03*
X106000000Y-89300000D03*
X149175000Y-63900000D03*
X61725000Y-91850000D03*
X76675000Y-103025000D03*
X95275000Y-92050000D03*
X134750000Y-46025000D03*
X91950000Y-104475000D03*
X132050000Y-52600000D03*
X119600000Y-34100000D03*
X129250000Y-51425000D03*
X90800000Y-69200000D03*
X111875000Y-71300000D03*
X129550000Y-64525000D03*
X67450000Y-89325000D03*
X122100000Y-61150000D03*
X113375000Y-69900000D03*
X142225000Y-76850000D03*
X140975000Y-74175000D03*
X144875000Y-86250000D03*
X125550000Y-64150000D03*
X143050000Y-89300000D03*
X119475000Y-87925000D03*
X148750000Y-58400000D03*
X145350000Y-62750000D03*
X118825000Y-31375000D03*
X118650000Y-28975000D03*
X120575000Y-59675000D03*
X91600000Y-78500000D03*
X67125000Y-78500000D03*
X145000000Y-89250000D03*
X124375000Y-76125000D03*
X67450000Y-91525000D03*
X104450000Y-78525000D03*
X141950000Y-52025000D03*
X106525000Y-91775000D03*
X92800000Y-98300000D03*
X146275000Y-43100000D03*
X138525000Y-40000000D03*
X133875000Y-101500000D03*
X100600000Y-78325000D03*
X137175000Y-52275000D03*
X137000000Y-29925000D03*
X147350000Y-89825000D03*
X135175000Y-49875000D03*
X79500000Y-81275000D03*
X132675000Y-95150000D03*
X122500000Y-64000000D03*
X133350000Y-86150000D03*
X134825000Y-100650000D03*
X90900000Y-71200000D03*
X73175000Y-79750000D03*
X129225000Y-68225000D03*
X133625000Y-83725000D03*
X137700000Y-45975000D03*
X104425000Y-79775000D03*
X141350000Y-40525000D03*
%TO.N,+5V*%
X91115000Y-91830000D03*
X89845000Y-70240000D03*
X63175000Y-91800000D03*
X61905000Y-78425000D03*
D20*
%TO.N,+3.3V*%
X137600000Y-47550000D03*
D19*
X105085000Y-91830000D03*
X78000000Y-80725000D03*
D20*
X127025000Y-84500000D03*
D19*
X112350000Y-72150000D03*
X77145000Y-91830000D03*
D20*
%TO.N,Net-(U3-EN)*%
X148820000Y-64970000D03*
X84500000Y-102650000D03*
D19*
%TO.N,/ESP32-S3 with USB-C/USB_D-*%
X132650521Y-89550521D03*
X135910000Y-64700000D03*
D20*
%TO.N,/ESP32-S3 with USB-C/RX0*%
X146280000Y-87020000D03*
X128425000Y-101400000D03*
X131762500Y-97012500D03*
%TO.N,/ESP32-S3 with USB-C/USB_D+*%
X130425000Y-103725000D03*
X131425000Y-103750000D03*
D19*
X135060000Y-64700000D03*
X132049479Y-88949479D03*
D20*
%TO.N,Net-(U3-GPIO0{slash}BOOT)*%
X131575000Y-84430000D03*
X74050000Y-102400000D03*
D19*
%TO.N,/ESP32-S3 with USB-C/COLUMN_CLK*%
X138650000Y-63300000D03*
X125387500Y-76812500D03*
D20*
%TO.N,/ESP32-S3 with USB-C/COLUMN_~{CLR}*%
X111300000Y-88650000D03*
X123600000Y-88650000D03*
%TO.N,/ESP32-S3 with USB-C/OUTPUT_ENABLE*%
X91225000Y-89925000D03*
X117700000Y-70650000D03*
X87800000Y-93350000D03*
X63350000Y-89900000D03*
%TO.N,/ESP32-S3 with USB-C/GPIO4*%
X132500000Y-55450000D03*
%TO.N,/ESP32-S3 with USB-C/GPIO1*%
X150100000Y-86475000D03*
%TO.N,/ESP32-S3 with USB-C/GPIO3*%
X128050000Y-65150000D03*
%TO.N,/ESP32-S3 with USB-C/GPIO5*%
X132000000Y-56000000D03*
%TO.N,/ESP32-S3 with USB-C/GPIO7*%
X131100000Y-57050000D03*
%TO.N,/ESP32-S3 with USB-C/GPIO2*%
X148850000Y-86475000D03*
%TO.N,/ESP32-S3 with USB-C/GPIO6*%
X131550000Y-56550000D03*
%TD*%
D21*
%TO.N,+5V*%
X63175000Y-91800000D02*
X61905000Y-90530000D01*
X61905000Y-90530000D02*
X61905000Y-78425000D01*
X89845000Y-90560000D02*
X89845000Y-70240000D01*
X91115000Y-91830000D02*
X89845000Y-90560000D01*
%TO.N,+3.3V*%
X105085000Y-91830000D02*
X112025000Y-84890000D01*
X77145000Y-91830000D02*
X78000000Y-90975000D01*
X112415000Y-84500000D02*
X127025000Y-84500000D01*
X112415000Y-84500000D02*
X112350000Y-84435000D01*
X112025000Y-84890000D02*
X112415000Y-84500000D01*
X112350000Y-84435000D02*
X112350000Y-72150000D01*
X120280000Y-30230000D02*
X116600000Y-30230000D01*
X78000000Y-90975000D02*
X78000000Y-80725000D01*
X137600000Y-47550000D02*
X120280000Y-30230000D01*
D22*
%TO.N,Net-(U3-EN)*%
X87925000Y-99225000D02*
X127100000Y-99225000D01*
X148820000Y-77505000D02*
X148820000Y-64970000D01*
X84500000Y-102650000D02*
X87925000Y-99225000D01*
X127100000Y-99225000D02*
X148820000Y-77505000D01*
%TO.N,/ESP32-S3 with USB-C/USB_D-*%
X135910000Y-64700000D02*
X135710001Y-64899999D01*
X135710001Y-64899999D02*
X135710001Y-86208197D01*
X132650521Y-89267678D02*
X132650521Y-89550521D01*
X135710001Y-86208197D02*
X132650521Y-89267678D01*
%TO.N,/ESP32-S3 with USB-C/RX0*%
X146280000Y-87020000D02*
X146390000Y-87130000D01*
X128425000Y-100350000D02*
X131762500Y-97012500D01*
X146390000Y-87130000D02*
X146390000Y-91850000D01*
X128425000Y-101400000D02*
X128425000Y-100350000D01*
%TO.N,/ESP32-S3 with USB-C/USB_D+*%
X130425000Y-103725000D02*
X131400000Y-103725000D01*
X135259999Y-64899999D02*
X135259999Y-86021803D01*
X135060000Y-64700000D02*
X135259999Y-64899999D01*
X131400000Y-103725000D02*
X131425000Y-103750000D01*
X132332322Y-88949479D02*
X132049479Y-88949479D01*
X135259999Y-86021803D02*
X132332322Y-88949479D01*
%TO.N,Net-(U3-GPIO0{slash}BOOT)*%
X79075000Y-97375000D02*
X120650000Y-97375000D01*
X131575000Y-86450000D02*
X131575000Y-84430000D01*
X120650000Y-97375000D02*
X131575000Y-86450000D01*
X74050000Y-102400000D02*
X79075000Y-97375000D01*
%TO.N,/ESP32-S3 with USB-C/COLUMN_CLK*%
X138650000Y-63300000D02*
X132400000Y-63300000D01*
X125387500Y-70312500D02*
X125387500Y-76812500D01*
X132400000Y-63300000D02*
X125387500Y-70312500D01*
%TO.N,/ESP32-S3 with USB-C/COLUMN_~{CLR}*%
X123600000Y-88650000D02*
X111300000Y-88650000D01*
%TO.N,/ESP32-S3 with USB-C/OUTPUT_ENABLE*%
X91225000Y-88875000D02*
X109450000Y-70650000D01*
X109450000Y-70650000D02*
X117700000Y-70650000D01*
X63350000Y-89900000D02*
X63350000Y-90525000D01*
X63350000Y-90525000D02*
X66175000Y-93350000D01*
X91225000Y-89925000D02*
X91225000Y-88875000D01*
X66175000Y-93350000D02*
X87800000Y-93350000D01*
%TO.N,/ESP32-S3 with USB-C/GPIO4*%
X130136336Y-55450000D02*
X119659949Y-44973613D01*
X119659949Y-41509949D02*
X118540000Y-40390000D01*
X132500000Y-55450000D02*
X130136336Y-55450000D01*
X119659949Y-44973613D02*
X119659949Y-41509949D01*
X118540000Y-40390000D02*
X116600000Y-40390000D01*
%TO.N,/ESP32-S3 with USB-C/GPIO1*%
X150100000Y-82600000D02*
X151225000Y-81475000D01*
X151225000Y-63800000D02*
X120194999Y-32769999D01*
X151225000Y-81475000D02*
X151225000Y-63800000D01*
X120194999Y-32769999D02*
X116600000Y-32769999D01*
X150100000Y-86475000D02*
X150100000Y-82600000D01*
%TO.N,/ESP32-S3 with USB-C/GPIO3*%
X113950000Y-38750000D02*
X114850000Y-37850000D01*
X114850000Y-37850000D02*
X116600000Y-37850000D01*
X113950000Y-54250000D02*
X113950000Y-38750000D01*
X124850000Y-65150000D02*
X113950000Y-54250000D01*
X128050000Y-65150000D02*
X124850000Y-65150000D01*
%TO.N,/ESP32-S3 with USB-C/GPIO5*%
X118580000Y-42930000D02*
X119309949Y-43659949D01*
X116600000Y-42930000D02*
X118580000Y-42930000D01*
X119309949Y-45120001D02*
X130189948Y-56000000D01*
X130189948Y-56000000D02*
X132000000Y-56000000D01*
X119309949Y-43659949D02*
X119309949Y-45120001D01*
%TO.N,/ESP32-S3 with USB-C/GPIO7*%
X130250000Y-57050000D02*
X131100000Y-57050000D01*
X121210000Y-48010000D02*
X130250000Y-57050000D01*
X116600000Y-48010000D02*
X121210000Y-48010000D01*
%TO.N,/ESP32-S3 with USB-C/GPIO2*%
X150875000Y-63944974D02*
X122240026Y-35310000D01*
X122240026Y-35310000D02*
X116600000Y-35310000D01*
X148850000Y-86475000D02*
X148850000Y-83350000D01*
X150875000Y-81325000D02*
X150875000Y-63944974D01*
X148850000Y-83350000D02*
X150875000Y-81325000D01*
%TO.N,/ESP32-S3 with USB-C/GPIO6*%
X116600000Y-45470001D02*
X119164975Y-45470001D01*
X119164975Y-45470001D02*
X130244974Y-56550000D01*
X130244974Y-56550000D02*
X131550000Y-56550000D01*
%TD*%
%TA.AperFunction,Conductor*%
%TO.N,GND*%
G36*
X5159191Y-519407D02*
G01*
X5195155Y-568907D01*
X5200000Y-599500D01*
X5200000Y-8500000D01*
X5200001Y-8500000D01*
X13199999Y-8500000D01*
X13200000Y-8500000D01*
X13200000Y-599500D01*
X13218907Y-541309D01*
X13268407Y-505345D01*
X13299000Y-500500D01*
X106701000Y-500500D01*
X106759191Y-519407D01*
X106795155Y-568907D01*
X106800000Y-599500D01*
X106800000Y-8500000D01*
X106800001Y-8500000D01*
X114799999Y-8500000D01*
X114800000Y-8500000D01*
X114800000Y-599500D01*
X114818907Y-541309D01*
X114868407Y-505345D01*
X114899000Y-500500D01*
X147501000Y-500500D01*
X147559191Y-519407D01*
X147595155Y-568907D01*
X147600000Y-599500D01*
X147600000Y-8500000D01*
X147600001Y-8500000D01*
X155599999Y-8500000D01*
X155600000Y-8500000D01*
X155600000Y-657873D01*
X155606780Y-637005D01*
X155609644Y-615252D01*
X155616036Y-608515D01*
X155618907Y-599682D01*
X155636658Y-586784D01*
X155651761Y-570870D01*
X155660892Y-569177D01*
X155668407Y-563718D01*
X155711921Y-559720D01*
X155777053Y-568294D01*
X155785544Y-569792D01*
X156160338Y-652881D01*
X156168673Y-655115D01*
X156534797Y-770553D01*
X156542913Y-773507D01*
X156897587Y-920418D01*
X156905398Y-924060D01*
X157245910Y-1101320D01*
X157253390Y-1105638D01*
X157577167Y-1311906D01*
X157584241Y-1316860D01*
X157888797Y-1550554D01*
X157895398Y-1556093D01*
X158178459Y-1815470D01*
X158184529Y-1821540D01*
X158443905Y-2104599D01*
X158449445Y-2111202D01*
X158683139Y-2415758D01*
X158688093Y-2422832D01*
X158894361Y-2746609D01*
X158898679Y-2754089D01*
X159075935Y-3094593D01*
X159079585Y-3102420D01*
X159226492Y-3457086D01*
X159229446Y-3465202D01*
X159344884Y-3831326D01*
X159347119Y-3839668D01*
X159430205Y-4214445D01*
X159431705Y-4222951D01*
X159481813Y-4603554D01*
X159482566Y-4612158D01*
X159499406Y-4997847D01*
X159499500Y-5002165D01*
X159499500Y-50534802D01*
X159480593Y-50592993D01*
X159475005Y-50599994D01*
X153000000Y-57999999D01*
X153000000Y-66581000D01*
X152981093Y-66639191D01*
X152931593Y-66675155D01*
X152901000Y-66680000D01*
X152899999Y-66680000D01*
X152899999Y-84680000D01*
X152901000Y-84680000D01*
X152959191Y-84698907D01*
X152995155Y-84748407D01*
X153000000Y-84779000D01*
X153000000Y-93000000D01*
X159475005Y-100400006D01*
X159499095Y-100456249D01*
X159499500Y-100465197D01*
X159499500Y-104997834D01*
X159499406Y-105002152D01*
X159482566Y-105387841D01*
X159481813Y-105396445D01*
X159431705Y-105777048D01*
X159430205Y-105785554D01*
X159347119Y-106160331D01*
X159344884Y-106168673D01*
X159229446Y-106534797D01*
X159226492Y-106542913D01*
X159079585Y-106897579D01*
X159075935Y-106905406D01*
X158898679Y-107245910D01*
X158894361Y-107253390D01*
X158688093Y-107577167D01*
X158683139Y-107584241D01*
X158449445Y-107888797D01*
X158443895Y-107895411D01*
X158184540Y-108178447D01*
X158178447Y-108184540D01*
X158004725Y-108343728D01*
X157895413Y-108443894D01*
X157888797Y-108449445D01*
X157584241Y-108683139D01*
X157577167Y-108688093D01*
X157253390Y-108894361D01*
X157245910Y-108898679D01*
X156905406Y-109075935D01*
X156897579Y-109079585D01*
X156542913Y-109226492D01*
X156534797Y-109229446D01*
X156168673Y-109344884D01*
X156160331Y-109347119D01*
X155785554Y-109430205D01*
X155777048Y-109431705D01*
X155711922Y-109440279D01*
X155651761Y-109429129D01*
X155609644Y-109384747D01*
X155600000Y-109342126D01*
X155600000Y-101500001D01*
X155600000Y-101500000D01*
X147600000Y-101500000D01*
X147600000Y-101500001D01*
X147600000Y-109400500D01*
X147581093Y-109458691D01*
X147531593Y-109494655D01*
X147501000Y-109499500D01*
X114899000Y-109499500D01*
X114840809Y-109480593D01*
X114804845Y-109431093D01*
X114800000Y-109400500D01*
X114800000Y-107131055D01*
X125660000Y-107131055D01*
X125660000Y-107299999D01*
X125660001Y-107300000D01*
X126060000Y-107300000D01*
X126060000Y-107700000D01*
X125660001Y-107700000D01*
X125660000Y-107700001D01*
X125660000Y-107868944D01*
X125686901Y-108004183D01*
X125739666Y-108131571D01*
X125816271Y-108246220D01*
X125913779Y-108343728D01*
X126028428Y-108420333D01*
X126155813Y-108473097D01*
X126155819Y-108473099D01*
X126160000Y-108473929D01*
X126160000Y-108024265D01*
X126175795Y-108040060D01*
X126244204Y-108079556D01*
X126320504Y-108100000D01*
X126399496Y-108100000D01*
X126475796Y-108079556D01*
X126544205Y-108040060D01*
X126560000Y-108024265D01*
X126560000Y-108473929D01*
X126564180Y-108473099D01*
X126564186Y-108473097D01*
X126691571Y-108420333D01*
X126806220Y-108343728D01*
X126903728Y-108246220D01*
X126980333Y-108131571D01*
X127033098Y-108004183D01*
X127059999Y-107868944D01*
X127060000Y-107868942D01*
X127060000Y-107700001D01*
X127059999Y-107700000D01*
X126660000Y-107700000D01*
X126660000Y-107300000D01*
X127059999Y-107300000D01*
X127060000Y-107299999D01*
X127060000Y-107131057D01*
X127059999Y-107131055D01*
X134300000Y-107131055D01*
X134300000Y-107299999D01*
X134300001Y-107300000D01*
X134700000Y-107300000D01*
X134700000Y-107700000D01*
X134300001Y-107700000D01*
X134300000Y-107700001D01*
X134300000Y-107868944D01*
X134326901Y-108004183D01*
X134379666Y-108131571D01*
X134456271Y-108246220D01*
X134553779Y-108343728D01*
X134668428Y-108420333D01*
X134795813Y-108473097D01*
X134795819Y-108473099D01*
X134800000Y-108473929D01*
X134800000Y-108024265D01*
X134815795Y-108040060D01*
X134884204Y-108079556D01*
X134960504Y-108100000D01*
X135039496Y-108100000D01*
X135115796Y-108079556D01*
X135184205Y-108040060D01*
X135200000Y-108024265D01*
X135200000Y-108473929D01*
X135204180Y-108473099D01*
X135204186Y-108473097D01*
X135331571Y-108420333D01*
X135446220Y-108343728D01*
X135543728Y-108246220D01*
X135620333Y-108131571D01*
X135673098Y-108004183D01*
X135699999Y-107868944D01*
X135700000Y-107868942D01*
X135700000Y-107700001D01*
X135699999Y-107700000D01*
X135300000Y-107700000D01*
X135300000Y-107300000D01*
X135699999Y-107300000D01*
X135700000Y-107299999D01*
X135700000Y-107131057D01*
X135699999Y-107131055D01*
X135673098Y-106995816D01*
X135620333Y-106868428D01*
X135543728Y-106753779D01*
X135446220Y-106656271D01*
X135331571Y-106579666D01*
X135204189Y-106526903D01*
X135204183Y-106526901D01*
X135200000Y-106526069D01*
X135200000Y-106975735D01*
X135184205Y-106959940D01*
X135115796Y-106920444D01*
X135039496Y-106900000D01*
X134960504Y-106900000D01*
X134884204Y-106920444D01*
X134815795Y-106959940D01*
X134800000Y-106975735D01*
X134800000Y-106526069D01*
X134795816Y-106526901D01*
X134795810Y-106526903D01*
X134668428Y-106579666D01*
X134553779Y-106656271D01*
X134456271Y-106753779D01*
X134379666Y-106868428D01*
X134326901Y-106995816D01*
X134300000Y-107131055D01*
X127059999Y-107131055D01*
X127033098Y-106995816D01*
X126980333Y-106868428D01*
X126903728Y-106753779D01*
X126806220Y-106656271D01*
X126691571Y-106579666D01*
X126564189Y-106526903D01*
X126564183Y-106526901D01*
X126560000Y-106526069D01*
X126560000Y-106975735D01*
X126544205Y-106959940D01*
X126475796Y-106920444D01*
X126399496Y-106900000D01*
X126320504Y-106900000D01*
X126244204Y-106920444D01*
X126175795Y-106959940D01*
X126160000Y-106975735D01*
X126160000Y-106526069D01*
X126155816Y-106526901D01*
X126155810Y-106526903D01*
X126028428Y-106579666D01*
X125913779Y-106656271D01*
X125816271Y-106753779D01*
X125739666Y-106868428D01*
X125686901Y-106995816D01*
X125660000Y-107131055D01*
X114800000Y-107131055D01*
X114800000Y-102701055D01*
X125660000Y-102701055D01*
X125660000Y-103119999D01*
X125660001Y-103120000D01*
X126060000Y-103120000D01*
X126060000Y-103520000D01*
X125660001Y-103520000D01*
X125660000Y-103520001D01*
X125660000Y-103938944D01*
X125686901Y-104074183D01*
X125739666Y-104201571D01*
X125816271Y-104316220D01*
X125913779Y-104413728D01*
X126028428Y-104490333D01*
X126155813Y-104543097D01*
X126155819Y-104543099D01*
X126160000Y-104543929D01*
X126160000Y-104094265D01*
X126175795Y-104110060D01*
X126244204Y-104149556D01*
X126320504Y-104170000D01*
X126399496Y-104170000D01*
X126475796Y-104149556D01*
X126544205Y-104110060D01*
X126560000Y-104094265D01*
X126560000Y-104543929D01*
X126564180Y-104543099D01*
X126564186Y-104543097D01*
X126691571Y-104490333D01*
X126806220Y-104413728D01*
X126903728Y-104316220D01*
X126980333Y-104201571D01*
X127033098Y-104074183D01*
X127059999Y-103938944D01*
X127060000Y-103938942D01*
X127060000Y-103757399D01*
X127314500Y-103757399D01*
X127314500Y-103882601D01*
X127346905Y-104003536D01*
X127409505Y-104111964D01*
X127498036Y-104200495D01*
X127606464Y-104263095D01*
X127727399Y-104295500D01*
X127727401Y-104295500D01*
X127852599Y-104295500D01*
X127852601Y-104295500D01*
X127973536Y-104263095D01*
X128081964Y-104200495D01*
X128170495Y-104111964D01*
X128233095Y-104003536D01*
X128265500Y-103882601D01*
X128265500Y-103757399D01*
X128240926Y-103665691D01*
X129974500Y-103665691D01*
X129974500Y-103784309D01*
X129981199Y-103809309D01*
X130005202Y-103898890D01*
X130064507Y-104001608D01*
X130064509Y-104001610D01*
X130064511Y-104001613D01*
X130148387Y-104085489D01*
X130148389Y-104085490D01*
X130148391Y-104085492D01*
X130251110Y-104144797D01*
X130251111Y-104144797D01*
X130251114Y-104144799D01*
X130365691Y-104175500D01*
X130365693Y-104175500D01*
X130484307Y-104175500D01*
X130484309Y-104175500D01*
X130598886Y-104144799D01*
X130598888Y-104144797D01*
X130598890Y-104144797D01*
X130701608Y-104085492D01*
X130701608Y-104085491D01*
X130701613Y-104085489D01*
X130732607Y-104054495D01*
X130787124Y-104026719D01*
X130802610Y-104025500D01*
X131022391Y-104025500D01*
X131080582Y-104044407D01*
X131092388Y-104054490D01*
X131148387Y-104110489D01*
X131148389Y-104110490D01*
X131148391Y-104110492D01*
X131251110Y-104169797D01*
X131251111Y-104169797D01*
X131251114Y-104169799D01*
X131365691Y-104200500D01*
X131365693Y-104200500D01*
X131484307Y-104200500D01*
X131484309Y-104200500D01*
X131598886Y-104169799D01*
X131598888Y-104169797D01*
X131598890Y-104169797D01*
X131701608Y-104110492D01*
X131701608Y-104110491D01*
X131701613Y-104110489D01*
X131785489Y-104026613D01*
X131836105Y-103938944D01*
X131844797Y-103923890D01*
X131844797Y-103923888D01*
X131844799Y-103923886D01*
X131875500Y-103809309D01*
X131875500Y-103757399D01*
X133094500Y-103757399D01*
X133094500Y-103882601D01*
X133126905Y-104003536D01*
X133189505Y-104111964D01*
X133278036Y-104200495D01*
X133386464Y-104263095D01*
X133507399Y-104295500D01*
X133507401Y-104295500D01*
X133632599Y-104295500D01*
X133632601Y-104295500D01*
X133753536Y-104263095D01*
X133861964Y-104200495D01*
X133950495Y-104111964D01*
X134013095Y-104003536D01*
X134045500Y-103882601D01*
X134045500Y-103757399D01*
X134013095Y-103636464D01*
X133950495Y-103528036D01*
X133861964Y-103439505D01*
X133753536Y-103376905D01*
X133632601Y-103344500D01*
X133507399Y-103344500D01*
X133432718Y-103364511D01*
X133386463Y-103376905D01*
X133278036Y-103439505D01*
X133189505Y-103528036D01*
X133126905Y-103636463D01*
X133119073Y-103665692D01*
X133094500Y-103757399D01*
X131875500Y-103757399D01*
X131875500Y-103690691D01*
X131844799Y-103576114D01*
X131844797Y-103576111D01*
X131844797Y-103576109D01*
X131785492Y-103473391D01*
X131785490Y-103473389D01*
X131785489Y-103473387D01*
X131701613Y-103389511D01*
X131701610Y-103389509D01*
X131701608Y-103389507D01*
X131598889Y-103330202D01*
X131598890Y-103330202D01*
X131585351Y-103326574D01*
X131484309Y-103299500D01*
X131365691Y-103299500D01*
X131295567Y-103318289D01*
X131251109Y-103330202D01*
X131148391Y-103389507D01*
X131148390Y-103389508D01*
X131148387Y-103389510D01*
X131148387Y-103389511D01*
X131142392Y-103395505D01*
X131087878Y-103423281D01*
X131072391Y-103424500D01*
X130802610Y-103424500D01*
X130744419Y-103405593D01*
X130732607Y-103395505D01*
X130726609Y-103389507D01*
X130701613Y-103364511D01*
X130701610Y-103364509D01*
X130701609Y-103364508D01*
X130701608Y-103364507D01*
X130598889Y-103305202D01*
X130598890Y-103305202D01*
X130577610Y-103299500D01*
X130484309Y-103274500D01*
X130365691Y-103274500D01*
X130295567Y-103293289D01*
X130251109Y-103305202D01*
X130148391Y-103364507D01*
X130064507Y-103448391D01*
X130005202Y-103551109D01*
X129998502Y-103576114D01*
X129974500Y-103665691D01*
X128240926Y-103665691D01*
X128233095Y-103636464D01*
X128170495Y-103528036D01*
X128081964Y-103439505D01*
X127973536Y-103376905D01*
X127852601Y-103344500D01*
X127727399Y-103344500D01*
X127652718Y-103364511D01*
X127606463Y-103376905D01*
X127498036Y-103439505D01*
X127409505Y-103528036D01*
X127346905Y-103636463D01*
X127339073Y-103665692D01*
X127314500Y-103757399D01*
X127060000Y-103757399D01*
X127060000Y-103520001D01*
X127059999Y-103520000D01*
X126660000Y-103520000D01*
X126660000Y-103120000D01*
X127059999Y-103120000D01*
X127060000Y-103119999D01*
X127060000Y-102701057D01*
X127059999Y-102701055D01*
X134300000Y-102701055D01*
X134300000Y-103119999D01*
X134300001Y-103120000D01*
X134700000Y-103120000D01*
X134700000Y-103520000D01*
X134300001Y-103520000D01*
X134300000Y-103520001D01*
X134300000Y-103938944D01*
X134326901Y-104074183D01*
X134379666Y-104201571D01*
X134456271Y-104316220D01*
X134553779Y-104413728D01*
X134668428Y-104490333D01*
X134795813Y-104543097D01*
X134795819Y-104543099D01*
X134800000Y-104543929D01*
X134800000Y-104094265D01*
X134815795Y-104110060D01*
X134884204Y-104149556D01*
X134960504Y-104170000D01*
X135039496Y-104170000D01*
X135115796Y-104149556D01*
X135184205Y-104110060D01*
X135200000Y-104094265D01*
X135200000Y-104543929D01*
X135204180Y-104543099D01*
X135204186Y-104543097D01*
X135331571Y-104490333D01*
X135446220Y-104413728D01*
X135543728Y-104316220D01*
X135620333Y-104201571D01*
X135673098Y-104074183D01*
X135699999Y-103938944D01*
X135700000Y-103938942D01*
X135700000Y-103520001D01*
X135699999Y-103520000D01*
X135300000Y-103520000D01*
X135300000Y-103120000D01*
X135699999Y-103120000D01*
X135700000Y-103119999D01*
X135700000Y-102701057D01*
X135699999Y-102701055D01*
X135673098Y-102565816D01*
X135620333Y-102438428D01*
X135543728Y-102323779D01*
X135446220Y-102226271D01*
X135331571Y-102149666D01*
X135204189Y-102096903D01*
X135204183Y-102096901D01*
X135200000Y-102096069D01*
X135200000Y-102545735D01*
X135184205Y-102529940D01*
X135115796Y-102490444D01*
X135039496Y-102470000D01*
X134960504Y-102470000D01*
X134884204Y-102490444D01*
X134815795Y-102529940D01*
X134800000Y-102545735D01*
X134800000Y-102096069D01*
X134795816Y-102096901D01*
X134795810Y-102096903D01*
X134668428Y-102149666D01*
X134553779Y-102226271D01*
X134456271Y-102323779D01*
X134379666Y-102438428D01*
X134326901Y-102565816D01*
X134300000Y-102701055D01*
X127059999Y-102701055D01*
X127033098Y-102565816D01*
X126980333Y-102438428D01*
X126903728Y-102323779D01*
X126806220Y-102226271D01*
X126691571Y-102149666D01*
X126564189Y-102096903D01*
X126564183Y-102096901D01*
X126560000Y-102096069D01*
X126560000Y-102545735D01*
X126544205Y-102529940D01*
X126475796Y-102490444D01*
X126399496Y-102470000D01*
X126320504Y-102470000D01*
X126244204Y-102490444D01*
X126175795Y-102529940D01*
X126160000Y-102545735D01*
X126160000Y-102096069D01*
X126155816Y-102096901D01*
X126155810Y-102096903D01*
X126028428Y-102149666D01*
X125913779Y-102226271D01*
X125816271Y-102323779D01*
X125739666Y-102438428D01*
X125686901Y-102565816D01*
X125660000Y-102701055D01*
X114800000Y-102701055D01*
X114800000Y-101500001D01*
X114800000Y-101500000D01*
X106800000Y-101500000D01*
X106800000Y-101500001D01*
X106800000Y-109400500D01*
X106781093Y-109458691D01*
X106731593Y-109494655D01*
X106701000Y-109499500D01*
X13299000Y-109499500D01*
X13240809Y-109480593D01*
X13204845Y-109431093D01*
X13200000Y-109400500D01*
X13200000Y-102340691D01*
X73599500Y-102340691D01*
X73599500Y-102459309D01*
X73602365Y-102470000D01*
X73630202Y-102573890D01*
X73689507Y-102676608D01*
X73689509Y-102676610D01*
X73689511Y-102676613D01*
X73773387Y-102760489D01*
X73773389Y-102760490D01*
X73773391Y-102760492D01*
X73876110Y-102819797D01*
X73876111Y-102819797D01*
X73876114Y-102819799D01*
X73990691Y-102850500D01*
X73990693Y-102850500D01*
X74109307Y-102850500D01*
X74109309Y-102850500D01*
X74223886Y-102819799D01*
X74223888Y-102819797D01*
X74223890Y-102819797D01*
X74326608Y-102760492D01*
X74326608Y-102760491D01*
X74326613Y-102760489D01*
X74410489Y-102676613D01*
X74423427Y-102654204D01*
X74460097Y-102590691D01*
X84049500Y-102590691D01*
X84049500Y-102709309D01*
X84063214Y-102760489D01*
X84080202Y-102823890D01*
X84139507Y-102926608D01*
X84139509Y-102926610D01*
X84139511Y-102926613D01*
X84223387Y-103010489D01*
X84223389Y-103010490D01*
X84223391Y-103010492D01*
X84326110Y-103069797D01*
X84326111Y-103069797D01*
X84326114Y-103069799D01*
X84440691Y-103100500D01*
X84440693Y-103100500D01*
X84559307Y-103100500D01*
X84559309Y-103100500D01*
X84673886Y-103069799D01*
X84673888Y-103069797D01*
X84673890Y-103069797D01*
X84776608Y-103010492D01*
X84776608Y-103010491D01*
X84776613Y-103010489D01*
X84860489Y-102926613D01*
X84860492Y-102926608D01*
X84919797Y-102823890D01*
X84919797Y-102823888D01*
X84919799Y-102823886D01*
X84950500Y-102709309D01*
X84950500Y-102665479D01*
X84969407Y-102607288D01*
X84979496Y-102595475D01*
X86234280Y-101340691D01*
X127974500Y-101340691D01*
X127974500Y-101459309D01*
X128001574Y-101560351D01*
X128005202Y-101573890D01*
X128064507Y-101676608D01*
X128064509Y-101676610D01*
X128064511Y-101676613D01*
X128148387Y-101760489D01*
X128148389Y-101760490D01*
X128148391Y-101760492D01*
X128251110Y-101819797D01*
X128251111Y-101819797D01*
X128251114Y-101819799D01*
X128365691Y-101850500D01*
X128365693Y-101850500D01*
X128484307Y-101850500D01*
X128484309Y-101850500D01*
X128598886Y-101819799D01*
X128598888Y-101819797D01*
X128598890Y-101819797D01*
X128701608Y-101760492D01*
X128701608Y-101760491D01*
X128701613Y-101760489D01*
X128785489Y-101676613D01*
X128844799Y-101573886D01*
X128875500Y-101459309D01*
X128875500Y-101340691D01*
X128844799Y-101226114D01*
X128844797Y-101226111D01*
X128844797Y-101226109D01*
X128785492Y-101123391D01*
X128785491Y-101123390D01*
X128785490Y-101123389D01*
X128785489Y-101123387D01*
X128754495Y-101092393D01*
X128726719Y-101037876D01*
X128725500Y-101022390D01*
X128725500Y-100515479D01*
X128744407Y-100457288D01*
X128754496Y-100445475D01*
X131707975Y-97491996D01*
X131762492Y-97464219D01*
X131777979Y-97463000D01*
X131821807Y-97463000D01*
X131821809Y-97463000D01*
X131936386Y-97432299D01*
X131936388Y-97432297D01*
X131936390Y-97432297D01*
X132039108Y-97372992D01*
X132039108Y-97372991D01*
X132039113Y-97372989D01*
X132122989Y-97289113D01*
X132182299Y-97186386D01*
X132213000Y-97071809D01*
X132213000Y-96953191D01*
X132182299Y-96838614D01*
X132182297Y-96838611D01*
X132182297Y-96838609D01*
X132122992Y-96735891D01*
X132122990Y-96735889D01*
X132122989Y-96735887D01*
X132039113Y-96652011D01*
X132039110Y-96652009D01*
X132039108Y-96652007D01*
X131936389Y-96592702D01*
X131936390Y-96592702D01*
X131922851Y-96589074D01*
X131821809Y-96562000D01*
X131703191Y-96562000D01*
X131633067Y-96580789D01*
X131588609Y-96592702D01*
X131485891Y-96652007D01*
X131402007Y-96735891D01*
X131342702Y-96838609D01*
X131312000Y-96953192D01*
X131312000Y-96997021D01*
X131293093Y-97055212D01*
X131283004Y-97067025D01*
X128240489Y-100109540D01*
X128240488Y-100109539D01*
X128184539Y-100165489D01*
X128144980Y-100234007D01*
X128144978Y-100234011D01*
X128124500Y-100310435D01*
X128124500Y-101022390D01*
X128105593Y-101080581D01*
X128095505Y-101092393D01*
X128064507Y-101123391D01*
X128005202Y-101226109D01*
X128005201Y-101226114D01*
X127974500Y-101340691D01*
X86234280Y-101340691D01*
X88020475Y-99554496D01*
X88074992Y-99526719D01*
X88090479Y-99525500D01*
X127139563Y-99525500D01*
X127139563Y-99525499D01*
X127215989Y-99505021D01*
X127284511Y-99465460D01*
X127340460Y-99409511D01*
X135769672Y-90980299D01*
X142800000Y-90980299D01*
X142800000Y-91649999D01*
X142800001Y-91650000D01*
X143388120Y-91650000D01*
X143384075Y-91657007D01*
X143350000Y-91784174D01*
X143350000Y-91915826D01*
X143384075Y-92042993D01*
X143388120Y-92050000D01*
X142800001Y-92050000D01*
X142800000Y-92050001D01*
X142800000Y-92719700D01*
X142811603Y-92778036D01*
X142855806Y-92844189D01*
X142855810Y-92844193D01*
X142921963Y-92888396D01*
X142980299Y-92899999D01*
X142980303Y-92900000D01*
X143649999Y-92900000D01*
X143650000Y-92899999D01*
X143650000Y-92311879D01*
X143657007Y-92315925D01*
X143784174Y-92350000D01*
X143915826Y-92350000D01*
X144042993Y-92315925D01*
X144050000Y-92311879D01*
X144050000Y-92899999D01*
X144050001Y-92900000D01*
X144719697Y-92900000D01*
X144719700Y-92899999D01*
X144778036Y-92888396D01*
X144844189Y-92844193D01*
X144844193Y-92844189D01*
X144888396Y-92778036D01*
X144899999Y-92719700D01*
X144900000Y-92719697D01*
X144900000Y-92050001D01*
X144899999Y-92050000D01*
X144311880Y-92050000D01*
X144315925Y-92042993D01*
X144350000Y-91915826D01*
X144350000Y-91784174D01*
X144339914Y-91746532D01*
X145339500Y-91746532D01*
X145339500Y-91953467D01*
X145379869Y-92156418D01*
X145459058Y-92347597D01*
X145459059Y-92347598D01*
X145574023Y-92519655D01*
X145720345Y-92665977D01*
X145892402Y-92780941D01*
X146083580Y-92860130D01*
X146286535Y-92900500D01*
X146286536Y-92900500D01*
X146493464Y-92900500D01*
X146493465Y-92900500D01*
X146696420Y-92860130D01*
X146887598Y-92780941D01*
X147059655Y-92665977D01*
X147205977Y-92519655D01*
X147320941Y-92347598D01*
X147400130Y-92156420D01*
X147440500Y-91953465D01*
X147440500Y-91746535D01*
X147440499Y-91746532D01*
X147879499Y-91746532D01*
X147879499Y-91953467D01*
X147919868Y-92156418D01*
X147999057Y-92347597D01*
X147999058Y-92347598D01*
X148114022Y-92519655D01*
X148260344Y-92665977D01*
X148432401Y-92780941D01*
X148623579Y-92860130D01*
X148826534Y-92900500D01*
X148826535Y-92900500D01*
X149033463Y-92900500D01*
X149033464Y-92900500D01*
X149236419Y-92860130D01*
X149427597Y-92780941D01*
X149599654Y-92665977D01*
X149745976Y-92519655D01*
X149860940Y-92347598D01*
X149940129Y-92156420D01*
X149980499Y-91953465D01*
X149980499Y-91746535D01*
X149940129Y-91543580D01*
X149860940Y-91352402D01*
X149745976Y-91180345D01*
X149599654Y-91034023D01*
X149599650Y-91034020D01*
X149427596Y-90919058D01*
X149236417Y-90839869D01*
X149033466Y-90799500D01*
X149033464Y-90799500D01*
X148826534Y-90799500D01*
X148826531Y-90799500D01*
X148623580Y-90839869D01*
X148432401Y-90919058D01*
X148260347Y-91034020D01*
X148114019Y-91180348D01*
X147999057Y-91352402D01*
X147919868Y-91543581D01*
X147879499Y-91746532D01*
X147440499Y-91746532D01*
X147400130Y-91543580D01*
X147320941Y-91352402D01*
X147205977Y-91180345D01*
X147059655Y-91034023D01*
X147003539Y-90996528D01*
X146887598Y-90919059D01*
X146751613Y-90862731D01*
X146705088Y-90822994D01*
X146690500Y-90771267D01*
X146690500Y-87236028D01*
X146698036Y-87198143D01*
X146699797Y-87193891D01*
X146699797Y-87193888D01*
X146699799Y-87193886D01*
X146730500Y-87079309D01*
X146730500Y-86960691D01*
X146699799Y-86846114D01*
X146699797Y-86846111D01*
X146699797Y-86846109D01*
X146640492Y-86743391D01*
X146640490Y-86743389D01*
X146640489Y-86743387D01*
X146556613Y-86659511D01*
X146556610Y-86659509D01*
X146556608Y-86659507D01*
X146453889Y-86600202D01*
X146453890Y-86600202D01*
X146419510Y-86590990D01*
X146339309Y-86569500D01*
X146220691Y-86569500D01*
X146150567Y-86588289D01*
X146106109Y-86600202D01*
X146003391Y-86659507D01*
X145919507Y-86743391D01*
X145860202Y-86846109D01*
X145860201Y-86846114D01*
X145829500Y-86960691D01*
X145829500Y-87079309D01*
X145838980Y-87114688D01*
X145860202Y-87193890D01*
X145919507Y-87296608D01*
X145919509Y-87296610D01*
X145919511Y-87296613D01*
X146003387Y-87380489D01*
X146040000Y-87401627D01*
X146080941Y-87447095D01*
X146089500Y-87487363D01*
X146089500Y-90771267D01*
X146070593Y-90829458D01*
X146028387Y-90862731D01*
X145892401Y-90919059D01*
X145720348Y-91034020D01*
X145574020Y-91180348D01*
X145459058Y-91352402D01*
X145379869Y-91543581D01*
X145339500Y-91746532D01*
X144339914Y-91746532D01*
X144315925Y-91657007D01*
X144311880Y-91650000D01*
X144899999Y-91650000D01*
X144900000Y-91649999D01*
X144900000Y-90980302D01*
X144899999Y-90980299D01*
X144888396Y-90921963D01*
X144844193Y-90855810D01*
X144844189Y-90855806D01*
X144778036Y-90811603D01*
X144719700Y-90800000D01*
X144050001Y-90800000D01*
X144050000Y-90800001D01*
X144050000Y-91388120D01*
X144042993Y-91384075D01*
X143915826Y-91350000D01*
X143784174Y-91350000D01*
X143657007Y-91384075D01*
X143650000Y-91388120D01*
X143650000Y-90800001D01*
X143649999Y-90800000D01*
X142980299Y-90800000D01*
X142921963Y-90811603D01*
X142855810Y-90855806D01*
X142855806Y-90855810D01*
X142811603Y-90921963D01*
X142800000Y-90980299D01*
X135769672Y-90980299D01*
X149060460Y-77689511D01*
X149100022Y-77620988D01*
X149120500Y-77544562D01*
X149120500Y-77465438D01*
X149120500Y-65347609D01*
X149139407Y-65289418D01*
X149149490Y-65277611D01*
X149180489Y-65246613D01*
X149202205Y-65209000D01*
X149239797Y-65143890D01*
X149239797Y-65143888D01*
X149239799Y-65143886D01*
X149270500Y-65029309D01*
X149270500Y-64910691D01*
X149239799Y-64796114D01*
X149239797Y-64796111D01*
X149239797Y-64796109D01*
X149180492Y-64693391D01*
X149180490Y-64693389D01*
X149180489Y-64693387D01*
X149096613Y-64609511D01*
X149096610Y-64609509D01*
X149096608Y-64609507D01*
X148993889Y-64550202D01*
X148993890Y-64550202D01*
X148980351Y-64546574D01*
X148879309Y-64519500D01*
X148760691Y-64519500D01*
X148690567Y-64538289D01*
X148646109Y-64550202D01*
X148543391Y-64609507D01*
X148459507Y-64693391D01*
X148400202Y-64796109D01*
X148393665Y-64820505D01*
X148369500Y-64910691D01*
X148369500Y-65029309D01*
X148385948Y-65090692D01*
X148400202Y-65143890D01*
X148459507Y-65246608D01*
X148459509Y-65246610D01*
X148459511Y-65246613D01*
X148490505Y-65277607D01*
X148518281Y-65332122D01*
X148519500Y-65347609D01*
X148519500Y-77339521D01*
X148500593Y-77397712D01*
X148490504Y-77409525D01*
X127004525Y-98895504D01*
X126950008Y-98923281D01*
X126934521Y-98924500D01*
X87885435Y-98924500D01*
X87809011Y-98944978D01*
X87809007Y-98944980D01*
X87740491Y-98984538D01*
X84554525Y-102170504D01*
X84500008Y-102198281D01*
X84484521Y-102199500D01*
X84440691Y-102199500D01*
X84370567Y-102218289D01*
X84326109Y-102230202D01*
X84223391Y-102289507D01*
X84139507Y-102373391D01*
X84080202Y-102476109D01*
X84080201Y-102476114D01*
X84049500Y-102590691D01*
X74460097Y-102590691D01*
X74469797Y-102573890D01*
X74469797Y-102573888D01*
X74469799Y-102573886D01*
X74500500Y-102459309D01*
X74500500Y-102406752D01*
X74502026Y-102398163D01*
X74512517Y-102378491D01*
X74519407Y-102357288D01*
X74529496Y-102345475D01*
X79170475Y-97704496D01*
X79224992Y-97676719D01*
X79240479Y-97675500D01*
X120689563Y-97675500D01*
X120689563Y-97675499D01*
X120765989Y-97655021D01*
X120834511Y-97615460D01*
X120890460Y-97559511D01*
X129566384Y-88883587D01*
X131548979Y-88883587D01*
X131548979Y-89015371D01*
X131563563Y-89069799D01*
X131583088Y-89142669D01*
X131648975Y-89256788D01*
X131648977Y-89256790D01*
X131648979Y-89256793D01*
X131742165Y-89349979D01*
X131742167Y-89349980D01*
X131742169Y-89349982D01*
X131856289Y-89415869D01*
X131856287Y-89415869D01*
X131856291Y-89415870D01*
X131856293Y-89415871D01*
X131983587Y-89449979D01*
X131983589Y-89449979D01*
X132051021Y-89449979D01*
X132109212Y-89468886D01*
X132145176Y-89518386D01*
X132150021Y-89548979D01*
X132150021Y-89616413D01*
X132179414Y-89726109D01*
X132184130Y-89743711D01*
X132250017Y-89857830D01*
X132250019Y-89857832D01*
X132250021Y-89857835D01*
X132343207Y-89951021D01*
X132343209Y-89951022D01*
X132343211Y-89951024D01*
X132457331Y-90016911D01*
X132457329Y-90016911D01*
X132457333Y-90016912D01*
X132457335Y-90016913D01*
X132584629Y-90051021D01*
X132584631Y-90051021D01*
X132716411Y-90051021D01*
X132716413Y-90051021D01*
X132843707Y-90016913D01*
X132843709Y-90016911D01*
X132843711Y-90016911D01*
X132957830Y-89951024D01*
X132957830Y-89951023D01*
X132957835Y-89951021D01*
X133051021Y-89857835D01*
X133112637Y-89751114D01*
X133116911Y-89743711D01*
X133116911Y-89743709D01*
X133116913Y-89743707D01*
X133151021Y-89616413D01*
X133151021Y-89484629D01*
X133116913Y-89357335D01*
X133106917Y-89340021D01*
X133094196Y-89280172D01*
X133119083Y-89224277D01*
X133122631Y-89220537D01*
X135950461Y-86392708D01*
X135972506Y-86354525D01*
X135990021Y-86324189D01*
X135990021Y-86324187D01*
X135990023Y-86324185D01*
X136010501Y-86247759D01*
X136010501Y-86168635D01*
X136010501Y-65267191D01*
X136029408Y-65209000D01*
X136078908Y-65173036D01*
X136083860Y-65171570D01*
X136103186Y-65166392D01*
X136217314Y-65100500D01*
X136310500Y-65007314D01*
X136310503Y-65007309D01*
X136376390Y-64893190D01*
X136376390Y-64893188D01*
X136376392Y-64893186D01*
X136410500Y-64765892D01*
X136410500Y-64634108D01*
X136376392Y-64506814D01*
X136376390Y-64506811D01*
X136376390Y-64506809D01*
X136310503Y-64392690D01*
X136310501Y-64392688D01*
X136310500Y-64392686D01*
X136217314Y-64299500D01*
X136217311Y-64299498D01*
X136217309Y-64299496D01*
X136103189Y-64233609D01*
X136103191Y-64233609D01*
X136053799Y-64220375D01*
X135975892Y-64199500D01*
X135844108Y-64199500D01*
X135766200Y-64220375D01*
X135716809Y-64233609D01*
X135602690Y-64299496D01*
X135602689Y-64299497D01*
X135602686Y-64299499D01*
X135602686Y-64299500D01*
X135555001Y-64347184D01*
X135500487Y-64374960D01*
X135440055Y-64365389D01*
X135414999Y-64347185D01*
X135367314Y-64299500D01*
X135367311Y-64299498D01*
X135367309Y-64299496D01*
X135253189Y-64233609D01*
X135253191Y-64233609D01*
X135203799Y-64220375D01*
X135125892Y-64199500D01*
X134994108Y-64199500D01*
X134916200Y-64220375D01*
X134866809Y-64233609D01*
X134752690Y-64299496D01*
X134659496Y-64392690D01*
X134593609Y-64506809D01*
X134581982Y-64550202D01*
X134559500Y-64634108D01*
X134559500Y-64765892D01*
X134582402Y-64851363D01*
X134593609Y-64893190D01*
X134659496Y-65007309D01*
X134659498Y-65007311D01*
X134659500Y-65007314D01*
X134752686Y-65100500D01*
X134866814Y-65166392D01*
X134886120Y-65171564D01*
X134937435Y-65204886D01*
X134959363Y-65262007D01*
X134959499Y-65267191D01*
X134959499Y-85856322D01*
X134940592Y-85914513D01*
X134930503Y-85926326D01*
X132379480Y-88477348D01*
X132324963Y-88505125D01*
X132264531Y-88495554D01*
X132259979Y-88493082D01*
X132242668Y-88483088D01*
X132242669Y-88483088D01*
X132227630Y-88479058D01*
X132115371Y-88448979D01*
X131983587Y-88448979D01*
X131905679Y-88469854D01*
X131856288Y-88483088D01*
X131742169Y-88548975D01*
X131648975Y-88642169D01*
X131583088Y-88756288D01*
X131569475Y-88807094D01*
X131548979Y-88883587D01*
X129566384Y-88883587D01*
X131815460Y-86634511D01*
X131840587Y-86590989D01*
X131855021Y-86565989D01*
X131875500Y-86489562D01*
X131875500Y-84807609D01*
X131894407Y-84749418D01*
X131904490Y-84737611D01*
X131935489Y-84706613D01*
X131994799Y-84603886D01*
X132025500Y-84489309D01*
X132025500Y-84370691D01*
X131994799Y-84256114D01*
X131994797Y-84256111D01*
X131994797Y-84256109D01*
X131935492Y-84153391D01*
X131935490Y-84153389D01*
X131935489Y-84153387D01*
X131851613Y-84069511D01*
X131851610Y-84069509D01*
X131851608Y-84069507D01*
X131748889Y-84010202D01*
X131748890Y-84010202D01*
X131735351Y-84006574D01*
X131634309Y-83979500D01*
X131515691Y-83979500D01*
X131445567Y-83998289D01*
X131401109Y-84010202D01*
X131298391Y-84069507D01*
X131214507Y-84153391D01*
X131155202Y-84256109D01*
X131155201Y-84256114D01*
X131124500Y-84370691D01*
X131124500Y-84489309D01*
X131135272Y-84529511D01*
X131155202Y-84603890D01*
X131214507Y-84706608D01*
X131214509Y-84706610D01*
X131214511Y-84706613D01*
X131245505Y-84737607D01*
X131273281Y-84792122D01*
X131274500Y-84807609D01*
X131274500Y-86284521D01*
X131255593Y-86342712D01*
X131245504Y-86354525D01*
X120554525Y-97045504D01*
X120500008Y-97073281D01*
X120484521Y-97074500D01*
X79035435Y-97074500D01*
X78959011Y-97094978D01*
X78959007Y-97094980D01*
X78890491Y-97134538D01*
X74104525Y-101920504D01*
X74050008Y-101948281D01*
X74034521Y-101949500D01*
X73990691Y-101949500D01*
X73920567Y-101968289D01*
X73876109Y-101980202D01*
X73773391Y-102039507D01*
X73689507Y-102123391D01*
X73630202Y-102226109D01*
X73613215Y-102289507D01*
X73599500Y-102340691D01*
X13200000Y-102340691D01*
X13200000Y-101500001D01*
X13200000Y-101500000D01*
X5200000Y-101500000D01*
X5200000Y-101500001D01*
X5200000Y-109400500D01*
X5195155Y-109415411D01*
X5195155Y-109431093D01*
X5185938Y-109443778D01*
X5181093Y-109458691D01*
X5168407Y-109467907D01*
X5159191Y-109480593D01*
X5144278Y-109485438D01*
X5131593Y-109494655D01*
X5101000Y-109499500D01*
X5002165Y-109499500D01*
X4997847Y-109499406D01*
X4612158Y-109482566D01*
X4603554Y-109481813D01*
X4222951Y-109431705D01*
X4214445Y-109430205D01*
X3839668Y-109347119D01*
X3831326Y-109344884D01*
X3465202Y-109229446D01*
X3457086Y-109226492D01*
X3102420Y-109079585D01*
X3094593Y-109075935D01*
X2754089Y-108898679D01*
X2746609Y-108894361D01*
X2422832Y-108688093D01*
X2415758Y-108683139D01*
X2111202Y-108449445D01*
X2104599Y-108443905D01*
X1821540Y-108184529D01*
X1815470Y-108178459D01*
X1556093Y-107895398D01*
X1550554Y-107888797D01*
X1316860Y-107584241D01*
X1311906Y-107577167D01*
X1105638Y-107253390D01*
X1101320Y-107245910D01*
X952453Y-106959940D01*
X924060Y-106905398D01*
X920414Y-106897579D01*
X908339Y-106868428D01*
X773507Y-106542913D01*
X770553Y-106534797D01*
X655115Y-106168673D01*
X652880Y-106160331D01*
X569794Y-105785554D01*
X568294Y-105777048D01*
X555643Y-105680953D01*
X518184Y-105396432D01*
X517434Y-105387853D01*
X500594Y-105002152D01*
X500500Y-104997834D01*
X500500Y-96806581D01*
X33550000Y-96806581D01*
X33550000Y-97013418D01*
X33590349Y-97216272D01*
X33669501Y-97407361D01*
X33729699Y-97497455D01*
X34131979Y-97095174D01*
X34134075Y-97102993D01*
X34199901Y-97217007D01*
X34292993Y-97310099D01*
X34407007Y-97375925D01*
X34414822Y-97378019D01*
X34012543Y-97780299D01*
X34102638Y-97840498D01*
X34293727Y-97919650D01*
X34496581Y-97959999D01*
X34496586Y-97960000D01*
X34703414Y-97960000D01*
X34703418Y-97959999D01*
X34906272Y-97919650D01*
X35097360Y-97840498D01*
X35187455Y-97780299D01*
X34785175Y-97378019D01*
X34792993Y-97375925D01*
X34907007Y-97310099D01*
X35000099Y-97217007D01*
X35065925Y-97102993D01*
X35068019Y-97095175D01*
X35470299Y-97497455D01*
X35530498Y-97407360D01*
X35609650Y-97216272D01*
X35649999Y-97013418D01*
X35650000Y-97013413D01*
X35650000Y-96806585D01*
X35649999Y-96806582D01*
X35649989Y-96806532D01*
X36089500Y-96806532D01*
X36089500Y-97013467D01*
X36129869Y-97216418D01*
X36209058Y-97407597D01*
X36324020Y-97579651D01*
X36324023Y-97579655D01*
X36470345Y-97725977D01*
X36642402Y-97840941D01*
X36833580Y-97920130D01*
X37036535Y-97960500D01*
X37036536Y-97960500D01*
X37243464Y-97960500D01*
X37243465Y-97960500D01*
X37446420Y-97920130D01*
X37637598Y-97840941D01*
X37809655Y-97725977D01*
X37955977Y-97579655D01*
X38070941Y-97407598D01*
X38150130Y-97216420D01*
X38190500Y-97013465D01*
X38190500Y-96806535D01*
X38190499Y-96806532D01*
X38629500Y-96806532D01*
X38629500Y-97013467D01*
X38669869Y-97216418D01*
X38749058Y-97407597D01*
X38864020Y-97579651D01*
X38864023Y-97579655D01*
X39010345Y-97725977D01*
X39182402Y-97840941D01*
X39373580Y-97920130D01*
X39576535Y-97960500D01*
X39576536Y-97960500D01*
X39783464Y-97960500D01*
X39783465Y-97960500D01*
X39986420Y-97920130D01*
X40177598Y-97840941D01*
X40349655Y-97725977D01*
X40495977Y-97579655D01*
X40610941Y-97407598D01*
X40690130Y-97216420D01*
X40730500Y-97013465D01*
X40730500Y-96806535D01*
X40730499Y-96806532D01*
X41169500Y-96806532D01*
X41169500Y-97013467D01*
X41209869Y-97216418D01*
X41289058Y-97407597D01*
X41404020Y-97579651D01*
X41404023Y-97579655D01*
X41550345Y-97725977D01*
X41722402Y-97840941D01*
X41913580Y-97920130D01*
X42116535Y-97960500D01*
X42116536Y-97960500D01*
X42323464Y-97960500D01*
X42323465Y-97960500D01*
X42526420Y-97920130D01*
X42717598Y-97840941D01*
X42889655Y-97725977D01*
X43035977Y-97579655D01*
X43150941Y-97407598D01*
X43230130Y-97216420D01*
X43270500Y-97013465D01*
X43270500Y-96806535D01*
X43270499Y-96806532D01*
X43709501Y-96806532D01*
X43709501Y-97013467D01*
X43749870Y-97216418D01*
X43829059Y-97407597D01*
X43944021Y-97579651D01*
X43944024Y-97579655D01*
X44090346Y-97725977D01*
X44262403Y-97840941D01*
X44453581Y-97920130D01*
X44656536Y-97960500D01*
X44656537Y-97960500D01*
X44863465Y-97960500D01*
X44863466Y-97960500D01*
X45066421Y-97920130D01*
X45257599Y-97840941D01*
X45429656Y-97725977D01*
X45575978Y-97579655D01*
X45690942Y-97407598D01*
X45770131Y-97216420D01*
X45810501Y-97013465D01*
X45810501Y-96806535D01*
X45810500Y-96806532D01*
X46249500Y-96806532D01*
X46249500Y-97013467D01*
X46289869Y-97216418D01*
X46369058Y-97407597D01*
X46484020Y-97579651D01*
X46484023Y-97579655D01*
X46630345Y-97725977D01*
X46802402Y-97840941D01*
X46993580Y-97920130D01*
X47196535Y-97960500D01*
X47196536Y-97960500D01*
X47403464Y-97960500D01*
X47403465Y-97960500D01*
X47606420Y-97920130D01*
X47797598Y-97840941D01*
X47969655Y-97725977D01*
X48115977Y-97579655D01*
X48230941Y-97407598D01*
X48310130Y-97216420D01*
X48350500Y-97013465D01*
X48350500Y-96806535D01*
X48310130Y-96603580D01*
X48230941Y-96412402D01*
X48126254Y-96255725D01*
X48789500Y-96255725D01*
X48789500Y-97564274D01*
X48792353Y-97594694D01*
X48792355Y-97594703D01*
X48837207Y-97722883D01*
X48917845Y-97832144D01*
X48917847Y-97832146D01*
X48917850Y-97832150D01*
X48917853Y-97832152D01*
X48917855Y-97832154D01*
X49027116Y-97912792D01*
X49027117Y-97912792D01*
X49027118Y-97912793D01*
X49155301Y-97957646D01*
X49185725Y-97960499D01*
X49185727Y-97960500D01*
X49185734Y-97960500D01*
X50494273Y-97960500D01*
X50494273Y-97960499D01*
X50524699Y-97957646D01*
X50652882Y-97912793D01*
X50762150Y-97832150D01*
X50842793Y-97722882D01*
X50887646Y-97594699D01*
X50890499Y-97564273D01*
X50890500Y-97564273D01*
X50890500Y-96255727D01*
X50890499Y-96255725D01*
X50887646Y-96225305D01*
X50887646Y-96225301D01*
X50842793Y-96097118D01*
X50762150Y-95987850D01*
X50762146Y-95987847D01*
X50762144Y-95987845D01*
X50652883Y-95907207D01*
X50524703Y-95862355D01*
X50524694Y-95862353D01*
X50494274Y-95859500D01*
X50494266Y-95859500D01*
X49185734Y-95859500D01*
X49185725Y-95859500D01*
X49155305Y-95862353D01*
X49155296Y-95862355D01*
X49027116Y-95907207D01*
X48917855Y-95987845D01*
X48917845Y-95987855D01*
X48837207Y-96097116D01*
X48792355Y-96225296D01*
X48792353Y-96225305D01*
X48789500Y-96255725D01*
X48126254Y-96255725D01*
X48115977Y-96240345D01*
X47969655Y-96094023D01*
X47888353Y-96039699D01*
X47797597Y-95979058D01*
X47606418Y-95899869D01*
X47403467Y-95859500D01*
X47403465Y-95859500D01*
X47196535Y-95859500D01*
X47196532Y-95859500D01*
X46993581Y-95899869D01*
X46802402Y-95979058D01*
X46630348Y-96094020D01*
X46484020Y-96240348D01*
X46369058Y-96412402D01*
X46289869Y-96603581D01*
X46249500Y-96806532D01*
X45810500Y-96806532D01*
X45770131Y-96603580D01*
X45690942Y-96412402D01*
X45575978Y-96240345D01*
X45429656Y-96094023D01*
X45348354Y-96039699D01*
X45257598Y-95979058D01*
X45066419Y-95899869D01*
X44863468Y-95859500D01*
X44863466Y-95859500D01*
X44656536Y-95859500D01*
X44656533Y-95859500D01*
X44453582Y-95899869D01*
X44262403Y-95979058D01*
X44090349Y-96094020D01*
X43944021Y-96240348D01*
X43829059Y-96412402D01*
X43749870Y-96603581D01*
X43709501Y-96806532D01*
X43270499Y-96806532D01*
X43230130Y-96603580D01*
X43150941Y-96412402D01*
X43035977Y-96240345D01*
X42889655Y-96094023D01*
X42808353Y-96039699D01*
X42717597Y-95979058D01*
X42526418Y-95899869D01*
X42323467Y-95859500D01*
X42323465Y-95859500D01*
X42116535Y-95859500D01*
X42116532Y-95859500D01*
X41913581Y-95899869D01*
X41722402Y-95979058D01*
X41550348Y-96094020D01*
X41404020Y-96240348D01*
X41289058Y-96412402D01*
X41209869Y-96603581D01*
X41169500Y-96806532D01*
X40730499Y-96806532D01*
X40690130Y-96603580D01*
X40610941Y-96412402D01*
X40495977Y-96240345D01*
X40349655Y-96094023D01*
X40268353Y-96039699D01*
X40177597Y-95979058D01*
X39986418Y-95899869D01*
X39783467Y-95859500D01*
X39783465Y-95859500D01*
X39576535Y-95859500D01*
X39576532Y-95859500D01*
X39373581Y-95899869D01*
X39182402Y-95979058D01*
X39010348Y-96094020D01*
X38864020Y-96240348D01*
X38749058Y-96412402D01*
X38669869Y-96603581D01*
X38629500Y-96806532D01*
X38190499Y-96806532D01*
X38150130Y-96603580D01*
X38070941Y-96412402D01*
X37955977Y-96240345D01*
X37809655Y-96094023D01*
X37728353Y-96039699D01*
X37637597Y-95979058D01*
X37446418Y-95899869D01*
X37243467Y-95859500D01*
X37243465Y-95859500D01*
X37036535Y-95859500D01*
X37036532Y-95859500D01*
X36833581Y-95899869D01*
X36642402Y-95979058D01*
X36470348Y-96094020D01*
X36324020Y-96240348D01*
X36209058Y-96412402D01*
X36129869Y-96603581D01*
X36089500Y-96806532D01*
X35649989Y-96806532D01*
X35609650Y-96603727D01*
X35530498Y-96412638D01*
X35470299Y-96322543D01*
X35068019Y-96724822D01*
X35065925Y-96717007D01*
X35000099Y-96602993D01*
X34907007Y-96509901D01*
X34792993Y-96444075D01*
X34785174Y-96441979D01*
X35187455Y-96039699D01*
X35097361Y-95979501D01*
X34906272Y-95900349D01*
X34703418Y-95860000D01*
X34496581Y-95860000D01*
X34293727Y-95900349D01*
X34102638Y-95979501D01*
X34012543Y-96039699D01*
X34414824Y-96441980D01*
X34407007Y-96444075D01*
X34292993Y-96509901D01*
X34199901Y-96602993D01*
X34134075Y-96717007D01*
X34131980Y-96724824D01*
X33729699Y-96322543D01*
X33669501Y-96412638D01*
X33590349Y-96603727D01*
X33550000Y-96806581D01*
X500500Y-96806581D01*
X500500Y-94266532D01*
X33549500Y-94266532D01*
X33549500Y-94473467D01*
X33589869Y-94676418D01*
X33669058Y-94867597D01*
X33669059Y-94867598D01*
X33784023Y-95039655D01*
X33930345Y-95185977D01*
X34102402Y-95300941D01*
X34293580Y-95380130D01*
X34496535Y-95420500D01*
X34496536Y-95420500D01*
X34703464Y-95420500D01*
X34703465Y-95420500D01*
X34906420Y-95380130D01*
X35097598Y-95300941D01*
X35269655Y-95185977D01*
X35415977Y-95039655D01*
X35530941Y-94867598D01*
X35610130Y-94676420D01*
X35650500Y-94473465D01*
X35650500Y-94266535D01*
X35650499Y-94266532D01*
X36089500Y-94266532D01*
X36089500Y-94473467D01*
X36129869Y-94676418D01*
X36209058Y-94867597D01*
X36209059Y-94867598D01*
X36324023Y-95039655D01*
X36470345Y-95185977D01*
X36642402Y-95300941D01*
X36833580Y-95380130D01*
X37036535Y-95420500D01*
X37036536Y-95420500D01*
X37243464Y-95420500D01*
X37243465Y-95420500D01*
X37446420Y-95380130D01*
X37637598Y-95300941D01*
X37809655Y-95185977D01*
X37955977Y-95039655D01*
X38070941Y-94867598D01*
X38150130Y-94676420D01*
X38190500Y-94473465D01*
X38190500Y-94266535D01*
X38190499Y-94266532D01*
X38629500Y-94266532D01*
X38629500Y-94473467D01*
X38669869Y-94676418D01*
X38749058Y-94867597D01*
X38749059Y-94867598D01*
X38864023Y-95039655D01*
X39010345Y-95185977D01*
X39182402Y-95300941D01*
X39373580Y-95380130D01*
X39576535Y-95420500D01*
X39576536Y-95420500D01*
X39783464Y-95420500D01*
X39783465Y-95420500D01*
X39986420Y-95380130D01*
X40177598Y-95300941D01*
X40349655Y-95185977D01*
X40495977Y-95039655D01*
X40610941Y-94867598D01*
X40690130Y-94676420D01*
X40730500Y-94473465D01*
X40730500Y-94266535D01*
X40730499Y-94266532D01*
X41169500Y-94266532D01*
X41169500Y-94473467D01*
X41209869Y-94676418D01*
X41289058Y-94867597D01*
X41289059Y-94867598D01*
X41404023Y-95039655D01*
X41550345Y-95185977D01*
X41722402Y-95300941D01*
X41913580Y-95380130D01*
X42116535Y-95420500D01*
X42116536Y-95420500D01*
X42323464Y-95420500D01*
X42323465Y-95420500D01*
X42526420Y-95380130D01*
X42717598Y-95300941D01*
X42889655Y-95185977D01*
X43035977Y-95039655D01*
X43150941Y-94867598D01*
X43230130Y-94676420D01*
X43270500Y-94473465D01*
X43270500Y-94266535D01*
X43270499Y-94266532D01*
X43709500Y-94266532D01*
X43709500Y-94473467D01*
X43749869Y-94676418D01*
X43829058Y-94867597D01*
X43829059Y-94867598D01*
X43944023Y-95039655D01*
X44090345Y-95185977D01*
X44262402Y-95300941D01*
X44453580Y-95380130D01*
X44656535Y-95420500D01*
X44656536Y-95420500D01*
X44863464Y-95420500D01*
X44863465Y-95420500D01*
X45066420Y-95380130D01*
X45257598Y-95300941D01*
X45429655Y-95185977D01*
X45575977Y-95039655D01*
X45690941Y-94867598D01*
X45770130Y-94676420D01*
X45810500Y-94473465D01*
X45810500Y-94266535D01*
X45810499Y-94266532D01*
X46249500Y-94266532D01*
X46249500Y-94473467D01*
X46289869Y-94676418D01*
X46369058Y-94867597D01*
X46369059Y-94867598D01*
X46484023Y-95039655D01*
X46630345Y-95185977D01*
X46802402Y-95300941D01*
X46993580Y-95380130D01*
X47196535Y-95420500D01*
X47196536Y-95420500D01*
X47403464Y-95420500D01*
X47403465Y-95420500D01*
X47606420Y-95380130D01*
X47797598Y-95300941D01*
X47969655Y-95185977D01*
X48115977Y-95039655D01*
X48230941Y-94867598D01*
X48310130Y-94676420D01*
X48350500Y-94473465D01*
X48350500Y-94266535D01*
X48350499Y-94266532D01*
X48789500Y-94266532D01*
X48789500Y-94473467D01*
X48829869Y-94676418D01*
X48909058Y-94867597D01*
X48909059Y-94867598D01*
X49024023Y-95039655D01*
X49170345Y-95185977D01*
X49342402Y-95300941D01*
X49533580Y-95380130D01*
X49736535Y-95420500D01*
X49736536Y-95420500D01*
X49943464Y-95420500D01*
X49943465Y-95420500D01*
X50146420Y-95380130D01*
X50337598Y-95300941D01*
X50509655Y-95185977D01*
X50655977Y-95039655D01*
X50770941Y-94867598D01*
X50850130Y-94676420D01*
X50890500Y-94473465D01*
X50890500Y-94266535D01*
X50850130Y-94063580D01*
X50770941Y-93872402D01*
X50655977Y-93700345D01*
X50509655Y-93554023D01*
X50509651Y-93554020D01*
X50337597Y-93439058D01*
X50146418Y-93359869D01*
X49943467Y-93319500D01*
X49943465Y-93319500D01*
X49736535Y-93319500D01*
X49736532Y-93319500D01*
X49533581Y-93359869D01*
X49342402Y-93439058D01*
X49170348Y-93554020D01*
X49024020Y-93700348D01*
X48909058Y-93872402D01*
X48829869Y-94063581D01*
X48789500Y-94266532D01*
X48350499Y-94266532D01*
X48310130Y-94063580D01*
X48230941Y-93872402D01*
X48115977Y-93700345D01*
X47969655Y-93554023D01*
X47969651Y-93554020D01*
X47797597Y-93439058D01*
X47606418Y-93359869D01*
X47403467Y-93319500D01*
X47403465Y-93319500D01*
X47196535Y-93319500D01*
X47196532Y-93319500D01*
X46993581Y-93359869D01*
X46802402Y-93439058D01*
X46630348Y-93554020D01*
X46484020Y-93700348D01*
X46369058Y-93872402D01*
X46289869Y-94063581D01*
X46249500Y-94266532D01*
X45810499Y-94266532D01*
X45770130Y-94063580D01*
X45690941Y-93872402D01*
X45575977Y-93700345D01*
X45429655Y-93554023D01*
X45429651Y-93554020D01*
X45257597Y-93439058D01*
X45066418Y-93359869D01*
X44863467Y-93319500D01*
X44863465Y-93319500D01*
X44656535Y-93319500D01*
X44656532Y-93319500D01*
X44453581Y-93359869D01*
X44262402Y-93439058D01*
X44090348Y-93554020D01*
X43944020Y-93700348D01*
X43829058Y-93872402D01*
X43749869Y-94063581D01*
X43709500Y-94266532D01*
X43270499Y-94266532D01*
X43230130Y-94063580D01*
X43150941Y-93872402D01*
X43035977Y-93700345D01*
X42889655Y-93554023D01*
X42889651Y-93554020D01*
X42717597Y-93439058D01*
X42526418Y-93359869D01*
X42323467Y-93319500D01*
X42323465Y-93319500D01*
X42116535Y-93319500D01*
X42116532Y-93319500D01*
X41913581Y-93359869D01*
X41722402Y-93439058D01*
X41550348Y-93554020D01*
X41404020Y-93700348D01*
X41289058Y-93872402D01*
X41209869Y-94063581D01*
X41169500Y-94266532D01*
X40730499Y-94266532D01*
X40690130Y-94063580D01*
X40610941Y-93872402D01*
X40495977Y-93700345D01*
X40349655Y-93554023D01*
X40349651Y-93554020D01*
X40177597Y-93439058D01*
X39986418Y-93359869D01*
X39783467Y-93319500D01*
X39783465Y-93319500D01*
X39576535Y-93319500D01*
X39576532Y-93319500D01*
X39373581Y-93359869D01*
X39182402Y-93439058D01*
X39010348Y-93554020D01*
X38864020Y-93700348D01*
X38749058Y-93872402D01*
X38669869Y-94063581D01*
X38629500Y-94266532D01*
X38190499Y-94266532D01*
X38150130Y-94063580D01*
X38070941Y-93872402D01*
X37955977Y-93700345D01*
X37809655Y-93554023D01*
X37809651Y-93554020D01*
X37637597Y-93439058D01*
X37446418Y-93359869D01*
X37243467Y-93319500D01*
X37243465Y-93319500D01*
X37036535Y-93319500D01*
X37036532Y-93319500D01*
X36833581Y-93359869D01*
X36642402Y-93439058D01*
X36470348Y-93554020D01*
X36324020Y-93700348D01*
X36209058Y-93872402D01*
X36129869Y-94063581D01*
X36089500Y-94266532D01*
X35650499Y-94266532D01*
X35610130Y-94063580D01*
X35530941Y-93872402D01*
X35415977Y-93700345D01*
X35269655Y-93554023D01*
X35269651Y-93554020D01*
X35097597Y-93439058D01*
X34906418Y-93359869D01*
X34703467Y-93319500D01*
X34703465Y-93319500D01*
X34496535Y-93319500D01*
X34496532Y-93319500D01*
X34293581Y-93359869D01*
X34102402Y-93439058D01*
X33930348Y-93554020D01*
X33784020Y-93700348D01*
X33669058Y-93872402D01*
X33589869Y-94063581D01*
X33549500Y-94266532D01*
X500500Y-94266532D01*
X500500Y-88598300D01*
X5439500Y-88598300D01*
X5439500Y-89771700D01*
X5449181Y-89845238D01*
X5469964Y-90003096D01*
X5469964Y-90003101D01*
X5482804Y-90051021D01*
X5524761Y-90207605D01*
X5530372Y-90228543D01*
X5530376Y-90228556D01*
X5619688Y-90444177D01*
X5619690Y-90444181D01*
X5619692Y-90444185D01*
X5736392Y-90646315D01*
X5736394Y-90646318D01*
X5878471Y-90831477D01*
X5878473Y-90831479D01*
X5878477Y-90831484D01*
X6043516Y-90996523D01*
X6043520Y-90996526D01*
X6043522Y-90996528D01*
X6228681Y-91138605D01*
X6228685Y-91138608D01*
X6430815Y-91255308D01*
X6646449Y-91344626D01*
X6871896Y-91405035D01*
X7103300Y-91435500D01*
X7103301Y-91435500D01*
X7336699Y-91435500D01*
X7336700Y-91435500D01*
X7568104Y-91405035D01*
X7793551Y-91344626D01*
X8009185Y-91255308D01*
X8211315Y-91138608D01*
X8396484Y-90996523D01*
X8561523Y-90831484D01*
X8703608Y-90646315D01*
X8820308Y-90444185D01*
X8909626Y-90228551D01*
X8970035Y-90003104D01*
X9000500Y-89771700D01*
X9000500Y-88598300D01*
X8970035Y-88366896D01*
X8909626Y-88141449D01*
X8820308Y-87925815D01*
X8703608Y-87723685D01*
X8561523Y-87538516D01*
X8396484Y-87373477D01*
X8396479Y-87373473D01*
X8396477Y-87373471D01*
X8340851Y-87330788D01*
X9400000Y-87330788D01*
X9400000Y-88984999D01*
X9400001Y-88985000D01*
X10353130Y-88985000D01*
X10330000Y-89101282D01*
X10330000Y-89268718D01*
X10353130Y-89385000D01*
X9400002Y-89385000D01*
X9400001Y-89385001D01*
X9400001Y-91039203D01*
X9402850Y-91069600D01*
X9402850Y-91069602D01*
X9447654Y-91197647D01*
X9528207Y-91306790D01*
X9528209Y-91306792D01*
X9637352Y-91387345D01*
X9765398Y-91432149D01*
X9795789Y-91434999D01*
X10979998Y-91434999D01*
X10980000Y-91434998D01*
X10980000Y-90011870D01*
X11096282Y-90035000D01*
X11263718Y-90035000D01*
X11380000Y-90011870D01*
X11380000Y-91434998D01*
X11380001Y-91434999D01*
X12564203Y-91434999D01*
X12594600Y-91432149D01*
X12594602Y-91432149D01*
X12722647Y-91387345D01*
X12831790Y-91306792D01*
X12831792Y-91306790D01*
X12912345Y-91197647D01*
X12957149Y-91069601D01*
X12959999Y-91039211D01*
X12960000Y-91039210D01*
X12960000Y-89385001D01*
X12959999Y-89385000D01*
X12006870Y-89385000D01*
X12030000Y-89268718D01*
X12030000Y-89101282D01*
X12006870Y-88985000D01*
X12959998Y-88985000D01*
X12959999Y-88984999D01*
X12959999Y-87330796D01*
X12957149Y-87300399D01*
X12957149Y-87300397D01*
X12912345Y-87172352D01*
X12831792Y-87063209D01*
X12831790Y-87063207D01*
X12722647Y-86982654D01*
X12594601Y-86937850D01*
X12564211Y-86935000D01*
X11380001Y-86935000D01*
X11380000Y-86935001D01*
X11380000Y-88358129D01*
X11263718Y-88335000D01*
X11096282Y-88335000D01*
X10980000Y-88358129D01*
X10980000Y-86935001D01*
X10979999Y-86935000D01*
X9795796Y-86935000D01*
X9765399Y-86937850D01*
X9765397Y-86937850D01*
X9637352Y-86982654D01*
X9528209Y-87063207D01*
X9528207Y-87063209D01*
X9447654Y-87172352D01*
X9402850Y-87300398D01*
X9400000Y-87330788D01*
X8340851Y-87330788D01*
X8211318Y-87231394D01*
X8174249Y-87209992D01*
X8009185Y-87114692D01*
X8009181Y-87114690D01*
X8009177Y-87114688D01*
X7793556Y-87025376D01*
X7793555Y-87025375D01*
X7793551Y-87025374D01*
X7568104Y-86964965D01*
X7568099Y-86964964D01*
X7568098Y-86964964D01*
X7336700Y-86934500D01*
X7103300Y-86934500D01*
X7103299Y-86934500D01*
X6871903Y-86964964D01*
X6871898Y-86964964D01*
X6646456Y-87025372D01*
X6646443Y-87025376D01*
X6430822Y-87114688D01*
X6228681Y-87231394D01*
X6043522Y-87373471D01*
X5878471Y-87538522D01*
X5736394Y-87723681D01*
X5619688Y-87925822D01*
X5530376Y-88141443D01*
X5530372Y-88141456D01*
X5469964Y-88366898D01*
X5469964Y-88366903D01*
X5440502Y-88590692D01*
X5439500Y-88598300D01*
X500500Y-88598300D01*
X500500Y-78359108D01*
X61404500Y-78359108D01*
X61404500Y-78490892D01*
X61438608Y-78618186D01*
X61441234Y-78622735D01*
X61454500Y-78672238D01*
X61454500Y-90589311D01*
X61468347Y-90640986D01*
X61468347Y-90640988D01*
X61468348Y-90640988D01*
X61485202Y-90703889D01*
X61485202Y-90703890D01*
X61544507Y-90806609D01*
X61544508Y-90806610D01*
X61544509Y-90806611D01*
X61544511Y-90806614D01*
X62121972Y-91384075D01*
X62681624Y-91943727D01*
X62707245Y-91988103D01*
X62708606Y-91993182D01*
X62708609Y-91993189D01*
X62774496Y-92107309D01*
X62774498Y-92107311D01*
X62774500Y-92107314D01*
X62867686Y-92200500D01*
X62867688Y-92200501D01*
X62867690Y-92200503D01*
X62981810Y-92266390D01*
X62981808Y-92266390D01*
X62981812Y-92266391D01*
X62981814Y-92266392D01*
X63109108Y-92300500D01*
X63109110Y-92300500D01*
X63240890Y-92300500D01*
X63240892Y-92300500D01*
X63368186Y-92266392D01*
X63368188Y-92266390D01*
X63368190Y-92266390D01*
X63482309Y-92200503D01*
X63482309Y-92200502D01*
X63482314Y-92200500D01*
X63575500Y-92107314D01*
X63608590Y-92050001D01*
X63641390Y-91993190D01*
X63641390Y-91993188D01*
X63641392Y-91993186D01*
X63675500Y-91865892D01*
X63675500Y-91734108D01*
X63641392Y-91606814D01*
X63641390Y-91606811D01*
X63641390Y-91606809D01*
X63575503Y-91492690D01*
X63575501Y-91492688D01*
X63575500Y-91492686D01*
X63482314Y-91399500D01*
X63482311Y-91399498D01*
X63482309Y-91399496D01*
X63368189Y-91333609D01*
X63368182Y-91333606D01*
X63363103Y-91332245D01*
X63318727Y-91306624D01*
X62384496Y-90372393D01*
X62356719Y-90317876D01*
X62355500Y-90302389D01*
X62355500Y-89840691D01*
X62899500Y-89840691D01*
X62899500Y-89959309D01*
X62924074Y-90051021D01*
X62930202Y-90073890D01*
X62989507Y-90176608D01*
X62989509Y-90176610D01*
X62989511Y-90176613D01*
X63020505Y-90207607D01*
X63048281Y-90262122D01*
X63049500Y-90277609D01*
X63049500Y-90564564D01*
X63069978Y-90640986D01*
X63069977Y-90640986D01*
X63073052Y-90646311D01*
X63073053Y-90646314D01*
X63099763Y-90692576D01*
X63109540Y-90709511D01*
X65934540Y-93534511D01*
X65934539Y-93534511D01*
X65990489Y-93590460D01*
X66059007Y-93630019D01*
X66059011Y-93630021D01*
X66135435Y-93650499D01*
X66135437Y-93650500D01*
X66135438Y-93650500D01*
X87422390Y-93650500D01*
X87480581Y-93669407D01*
X87492393Y-93679495D01*
X87523387Y-93710489D01*
X87523389Y-93710490D01*
X87523390Y-93710491D01*
X87523391Y-93710492D01*
X87626110Y-93769797D01*
X87626111Y-93769797D01*
X87626114Y-93769799D01*
X87740691Y-93800500D01*
X87740693Y-93800500D01*
X87859307Y-93800500D01*
X87859309Y-93800500D01*
X87973886Y-93769799D01*
X87973888Y-93769797D01*
X87973890Y-93769797D01*
X88076608Y-93710492D01*
X88076608Y-93710491D01*
X88076613Y-93710489D01*
X88160489Y-93626613D01*
X88219799Y-93523886D01*
X88250500Y-93409309D01*
X88250500Y-93290691D01*
X88219799Y-93176114D01*
X88219797Y-93176111D01*
X88219797Y-93176109D01*
X88160492Y-93073391D01*
X88160490Y-93073389D01*
X88160489Y-93073387D01*
X88076613Y-92989511D01*
X88076610Y-92989509D01*
X88076608Y-92989507D01*
X87973889Y-92930202D01*
X87973890Y-92930202D01*
X87960351Y-92926574D01*
X87859309Y-92899500D01*
X87740691Y-92899500D01*
X87670567Y-92918289D01*
X87626109Y-92930202D01*
X87523391Y-92989507D01*
X87492393Y-93020505D01*
X87437876Y-93048281D01*
X87422390Y-93049500D01*
X66340479Y-93049500D01*
X66282288Y-93030593D01*
X66270475Y-93020504D01*
X65014079Y-91764108D01*
X76644500Y-91764108D01*
X76644500Y-91895892D01*
X76665356Y-91973727D01*
X76678609Y-92023190D01*
X76744496Y-92137309D01*
X76744498Y-92137311D01*
X76744500Y-92137314D01*
X76837686Y-92230500D01*
X76837688Y-92230501D01*
X76837690Y-92230503D01*
X76951810Y-92296390D01*
X76951808Y-92296390D01*
X76951812Y-92296391D01*
X76951814Y-92296392D01*
X77079108Y-92330500D01*
X77079110Y-92330500D01*
X77210890Y-92330500D01*
X77210892Y-92330500D01*
X77338186Y-92296392D01*
X77338188Y-92296390D01*
X77338190Y-92296390D01*
X77452309Y-92230503D01*
X77452309Y-92230502D01*
X77452314Y-92230500D01*
X77545500Y-92137314D01*
X77611392Y-92023186D01*
X77612751Y-92018113D01*
X77638374Y-91973727D01*
X78360490Y-91251614D01*
X78419799Y-91148886D01*
X78422553Y-91138608D01*
X78450500Y-91034309D01*
X78450500Y-80972238D01*
X78463765Y-80922735D01*
X78466392Y-80918186D01*
X78500500Y-80790892D01*
X78500500Y-80659108D01*
X78466392Y-80531814D01*
X78466390Y-80531811D01*
X78466390Y-80531809D01*
X78400503Y-80417690D01*
X78400501Y-80417688D01*
X78400500Y-80417686D01*
X78307314Y-80324500D01*
X78307311Y-80324498D01*
X78307309Y-80324496D01*
X78193189Y-80258609D01*
X78193191Y-80258609D01*
X78143799Y-80245375D01*
X78065892Y-80224500D01*
X77934108Y-80224500D01*
X77856200Y-80245375D01*
X77806809Y-80258609D01*
X77692690Y-80324496D01*
X77599496Y-80417690D01*
X77533609Y-80531809D01*
X77533608Y-80531814D01*
X77499500Y-80659108D01*
X77499500Y-80790892D01*
X77533608Y-80918186D01*
X77536234Y-80922735D01*
X77549500Y-80972238D01*
X77549500Y-90747388D01*
X77530593Y-90805579D01*
X77520504Y-90817392D01*
X77001271Y-91336624D01*
X76956899Y-91362244D01*
X76951819Y-91363605D01*
X76951810Y-91363609D01*
X76837690Y-91429496D01*
X76744496Y-91522690D01*
X76678609Y-91636809D01*
X76678608Y-91636814D01*
X76644500Y-91764108D01*
X65014079Y-91764108D01*
X63679496Y-90429525D01*
X63675869Y-90422407D01*
X63669407Y-90417712D01*
X63662243Y-90395663D01*
X63651719Y-90375008D01*
X63650500Y-90359521D01*
X63650500Y-90277609D01*
X63669407Y-90219418D01*
X63679490Y-90207611D01*
X63710489Y-90176613D01*
X63769799Y-90073886D01*
X63800500Y-89959309D01*
X63800500Y-89840691D01*
X63769799Y-89726114D01*
X63769797Y-89726111D01*
X63769797Y-89726109D01*
X63710492Y-89623391D01*
X63710490Y-89623389D01*
X63710489Y-89623387D01*
X63626613Y-89539511D01*
X63626610Y-89539509D01*
X63626608Y-89539507D01*
X63523889Y-89480202D01*
X63523890Y-89480202D01*
X63481658Y-89468886D01*
X63409309Y-89449500D01*
X63290691Y-89449500D01*
X63220567Y-89468289D01*
X63176109Y-89480202D01*
X63073391Y-89539507D01*
X62989507Y-89623391D01*
X62930202Y-89726109D01*
X62923502Y-89751114D01*
X62899500Y-89840691D01*
X62355500Y-89840691D01*
X62355500Y-78672238D01*
X62368765Y-78622735D01*
X62371392Y-78618186D01*
X62405500Y-78490892D01*
X62405500Y-78359108D01*
X62371392Y-78231814D01*
X62371390Y-78231811D01*
X62371390Y-78231809D01*
X62305503Y-78117690D01*
X62305501Y-78117688D01*
X62305500Y-78117686D01*
X62212314Y-78024500D01*
X62212311Y-78024498D01*
X62212309Y-78024496D01*
X62098189Y-77958609D01*
X62098191Y-77958609D01*
X62048799Y-77945375D01*
X61970892Y-77924500D01*
X61839108Y-77924500D01*
X61761200Y-77945375D01*
X61711809Y-77958609D01*
X61597690Y-78024496D01*
X61504496Y-78117690D01*
X61438609Y-78231809D01*
X61438608Y-78231814D01*
X61404500Y-78359108D01*
X500500Y-78359108D01*
X500500Y-70174108D01*
X89344500Y-70174108D01*
X89344500Y-70305892D01*
X89378608Y-70433186D01*
X89381234Y-70437735D01*
X89394500Y-70487238D01*
X89394500Y-90619309D01*
X89400309Y-90640988D01*
X89417163Y-90703888D01*
X89417163Y-90703889D01*
X89425198Y-90733881D01*
X89425202Y-90733889D01*
X89484507Y-90836609D01*
X89484508Y-90836610D01*
X89484509Y-90836611D01*
X89484511Y-90836614D01*
X90077393Y-91429496D01*
X90621624Y-91973727D01*
X90647245Y-92018103D01*
X90648606Y-92023182D01*
X90648609Y-92023189D01*
X90714496Y-92137309D01*
X90714498Y-92137311D01*
X90714500Y-92137314D01*
X90807686Y-92230500D01*
X90807688Y-92230501D01*
X90807690Y-92230503D01*
X90921810Y-92296390D01*
X90921808Y-92296390D01*
X90921812Y-92296391D01*
X90921814Y-92296392D01*
X91049108Y-92330500D01*
X91049110Y-92330500D01*
X91180890Y-92330500D01*
X91180892Y-92330500D01*
X91308186Y-92296392D01*
X91308188Y-92296390D01*
X91308190Y-92296390D01*
X91422309Y-92230503D01*
X91422309Y-92230502D01*
X91422314Y-92230500D01*
X91515500Y-92137314D01*
X91532821Y-92107314D01*
X91581390Y-92023190D01*
X91581390Y-92023188D01*
X91581392Y-92023186D01*
X91615500Y-91895892D01*
X91615500Y-91764108D01*
X104584500Y-91764108D01*
X104584500Y-91895892D01*
X104605356Y-91973727D01*
X104618609Y-92023190D01*
X104684496Y-92137309D01*
X104684498Y-92137311D01*
X104684500Y-92137314D01*
X104777686Y-92230500D01*
X104777688Y-92230501D01*
X104777690Y-92230503D01*
X104891810Y-92296390D01*
X104891808Y-92296390D01*
X104891812Y-92296391D01*
X104891814Y-92296392D01*
X105019108Y-92330500D01*
X105019110Y-92330500D01*
X105150890Y-92330500D01*
X105150892Y-92330500D01*
X105278186Y-92296392D01*
X105278188Y-92296390D01*
X105278190Y-92296390D01*
X105392309Y-92230503D01*
X105392309Y-92230502D01*
X105392314Y-92230500D01*
X105485500Y-92137314D01*
X105551392Y-92023186D01*
X105552750Y-92018114D01*
X105578373Y-91973728D01*
X108961411Y-88590691D01*
X110849500Y-88590691D01*
X110849500Y-88709309D01*
X110862817Y-88759007D01*
X110880202Y-88823890D01*
X110939507Y-88926608D01*
X110939509Y-88926610D01*
X110939511Y-88926613D01*
X111023387Y-89010489D01*
X111023389Y-89010490D01*
X111023391Y-89010492D01*
X111126110Y-89069797D01*
X111126111Y-89069797D01*
X111126114Y-89069799D01*
X111240691Y-89100500D01*
X111240693Y-89100500D01*
X111359307Y-89100500D01*
X111359309Y-89100500D01*
X111473886Y-89069799D01*
X111473888Y-89069797D01*
X111473890Y-89069797D01*
X111576608Y-89010492D01*
X111576608Y-89010491D01*
X111576613Y-89010489D01*
X111607607Y-88979495D01*
X111662124Y-88951719D01*
X111677610Y-88950500D01*
X123222390Y-88950500D01*
X123280581Y-88969407D01*
X123292393Y-88979495D01*
X123323387Y-89010489D01*
X123323389Y-89010490D01*
X123323390Y-89010491D01*
X123323391Y-89010492D01*
X123426110Y-89069797D01*
X123426111Y-89069797D01*
X123426114Y-89069799D01*
X123540691Y-89100500D01*
X123540693Y-89100500D01*
X123659307Y-89100500D01*
X123659309Y-89100500D01*
X123773886Y-89069799D01*
X123773888Y-89069797D01*
X123773890Y-89069797D01*
X123876608Y-89010492D01*
X123876608Y-89010491D01*
X123876613Y-89010489D01*
X123960489Y-88926613D01*
X123985330Y-88883587D01*
X124019797Y-88823890D01*
X124019797Y-88823888D01*
X124019799Y-88823886D01*
X124050500Y-88709309D01*
X124050500Y-88590691D01*
X124019799Y-88476114D01*
X124019797Y-88476111D01*
X124019797Y-88476109D01*
X123960492Y-88373391D01*
X123960490Y-88373389D01*
X123960489Y-88373387D01*
X123876613Y-88289511D01*
X123876610Y-88289509D01*
X123876608Y-88289507D01*
X123773889Y-88230202D01*
X123773890Y-88230202D01*
X123760351Y-88226574D01*
X123659309Y-88199500D01*
X123540691Y-88199500D01*
X123470567Y-88218289D01*
X123426109Y-88230202D01*
X123323391Y-88289507D01*
X123292393Y-88320505D01*
X123237876Y-88348281D01*
X123222390Y-88349500D01*
X111677610Y-88349500D01*
X111619419Y-88330593D01*
X111607607Y-88320505D01*
X111576613Y-88289511D01*
X111576610Y-88289509D01*
X111576609Y-88289508D01*
X111576608Y-88289507D01*
X111473889Y-88230202D01*
X111473890Y-88230202D01*
X111460351Y-88226574D01*
X111359309Y-88199500D01*
X111240691Y-88199500D01*
X111170567Y-88218289D01*
X111126109Y-88230202D01*
X111023391Y-88289507D01*
X110939507Y-88373391D01*
X110880202Y-88476109D01*
X110878332Y-88483088D01*
X110849500Y-88590691D01*
X108961411Y-88590691D01*
X112385489Y-85166614D01*
X112572607Y-84979496D01*
X112627124Y-84951719D01*
X112642611Y-84950500D01*
X127084307Y-84950500D01*
X127084309Y-84950500D01*
X127198886Y-84919799D01*
X127198888Y-84919797D01*
X127198890Y-84919797D01*
X127301608Y-84860492D01*
X127301608Y-84860491D01*
X127301613Y-84860489D01*
X127385489Y-84776613D01*
X127401774Y-84748407D01*
X127444797Y-84673890D01*
X127444797Y-84673888D01*
X127444799Y-84673886D01*
X127475500Y-84559309D01*
X127475500Y-84440691D01*
X127444799Y-84326114D01*
X127444797Y-84326111D01*
X127444797Y-84326109D01*
X127385492Y-84223391D01*
X127385490Y-84223389D01*
X127385489Y-84223387D01*
X127301613Y-84139511D01*
X127301610Y-84139509D01*
X127301608Y-84139507D01*
X127198889Y-84080202D01*
X127198890Y-84080202D01*
X127185351Y-84076574D01*
X127084309Y-84049500D01*
X127084307Y-84049500D01*
X112899500Y-84049500D01*
X112841309Y-84030593D01*
X112805345Y-83981093D01*
X112800500Y-83950500D01*
X112800500Y-76746608D01*
X124887000Y-76746608D01*
X124887000Y-76878392D01*
X124917079Y-76990651D01*
X124921109Y-77005690D01*
X124986996Y-77119809D01*
X124986998Y-77119811D01*
X124987000Y-77119814D01*
X125080186Y-77213000D01*
X125080188Y-77213001D01*
X125080190Y-77213003D01*
X125194310Y-77278890D01*
X125194308Y-77278890D01*
X125194312Y-77278891D01*
X125194314Y-77278892D01*
X125321608Y-77313000D01*
X125321610Y-77313000D01*
X125453390Y-77313000D01*
X125453392Y-77313000D01*
X125580686Y-77278892D01*
X125580688Y-77278890D01*
X125580690Y-77278890D01*
X125694809Y-77213003D01*
X125694809Y-77213002D01*
X125694814Y-77213000D01*
X125788000Y-77119814D01*
X125853892Y-77005686D01*
X125888000Y-76878392D01*
X125888000Y-76746608D01*
X125853892Y-76619314D01*
X125853890Y-76619311D01*
X125853890Y-76619309D01*
X125788003Y-76505190D01*
X125788001Y-76505188D01*
X125788000Y-76505186D01*
X125716994Y-76434180D01*
X125689219Y-76379666D01*
X125688000Y-76364179D01*
X125688000Y-70477979D01*
X125706907Y-70419788D01*
X125716996Y-70407975D01*
X132495475Y-63629496D01*
X132549992Y-63601719D01*
X132565479Y-63600500D01*
X138201679Y-63600500D01*
X138259870Y-63619407D01*
X138271676Y-63629490D01*
X138342686Y-63700500D01*
X138342688Y-63700501D01*
X138342690Y-63700503D01*
X138456810Y-63766390D01*
X138456808Y-63766390D01*
X138456812Y-63766391D01*
X138456814Y-63766392D01*
X138584108Y-63800500D01*
X138584110Y-63800500D01*
X138715890Y-63800500D01*
X138715892Y-63800500D01*
X138843186Y-63766392D01*
X138843188Y-63766390D01*
X138843190Y-63766390D01*
X138957309Y-63700503D01*
X138957309Y-63700502D01*
X138957314Y-63700500D01*
X139050500Y-63607314D01*
X139054434Y-63600500D01*
X139116390Y-63493190D01*
X139116390Y-63493188D01*
X139116392Y-63493186D01*
X139150500Y-63365892D01*
X139150500Y-63234108D01*
X139116392Y-63106814D01*
X139116390Y-63106811D01*
X139116390Y-63106809D01*
X139050503Y-62992690D01*
X139050501Y-62992688D01*
X139050500Y-62992686D01*
X138957314Y-62899500D01*
X138957311Y-62899498D01*
X138957309Y-62899496D01*
X138843189Y-62833609D01*
X138843191Y-62833609D01*
X138793799Y-62820375D01*
X138715892Y-62799500D01*
X138584108Y-62799500D01*
X138506200Y-62820375D01*
X138456809Y-62833609D01*
X138342690Y-62899496D01*
X138342689Y-62899497D01*
X138342686Y-62899499D01*
X138342686Y-62899500D01*
X138271680Y-62970505D01*
X138217166Y-62998281D01*
X138201679Y-62999500D01*
X132439562Y-62999500D01*
X132360438Y-62999500D01*
X132313661Y-63012033D01*
X132284007Y-63019979D01*
X132215493Y-63059536D01*
X125202989Y-70072040D01*
X125202988Y-70072039D01*
X125147039Y-70127989D01*
X125107480Y-70196507D01*
X125107478Y-70196511D01*
X125087000Y-70272935D01*
X125087000Y-76364179D01*
X125068093Y-76422370D01*
X125058009Y-76434176D01*
X124987000Y-76505186D01*
X124986997Y-76505189D01*
X124986996Y-76505190D01*
X124921109Y-76619309D01*
X124921108Y-76619314D01*
X124887000Y-76746608D01*
X112800500Y-76746608D01*
X112800500Y-72397238D01*
X112813765Y-72347735D01*
X112816392Y-72343186D01*
X112850500Y-72215892D01*
X112850500Y-72084108D01*
X112816392Y-71956814D01*
X112816390Y-71956811D01*
X112816390Y-71956809D01*
X112750503Y-71842690D01*
X112750501Y-71842688D01*
X112750500Y-71842686D01*
X112657314Y-71749500D01*
X112657311Y-71749498D01*
X112657309Y-71749496D01*
X112543189Y-71683609D01*
X112543191Y-71683609D01*
X112493799Y-71670375D01*
X112415892Y-71649500D01*
X112284108Y-71649500D01*
X112206200Y-71670375D01*
X112156809Y-71683609D01*
X112042690Y-71749496D01*
X111949496Y-71842690D01*
X111883609Y-71956809D01*
X111883608Y-71956814D01*
X111849500Y-72084108D01*
X111849500Y-72215892D01*
X111883608Y-72343186D01*
X111886234Y-72347735D01*
X111899500Y-72397238D01*
X111899500Y-84337389D01*
X111897031Y-84344986D01*
X111898281Y-84352876D01*
X111887756Y-84373531D01*
X111880593Y-84395580D01*
X111870504Y-84407393D01*
X111748386Y-84529511D01*
X104941271Y-91336624D01*
X104896899Y-91362244D01*
X104891819Y-91363605D01*
X104891810Y-91363609D01*
X104777690Y-91429496D01*
X104684496Y-91522690D01*
X104618609Y-91636809D01*
X104618608Y-91636814D01*
X104584500Y-91764108D01*
X91615500Y-91764108D01*
X91581392Y-91636814D01*
X91581390Y-91636811D01*
X91581390Y-91636809D01*
X91515503Y-91522690D01*
X91515501Y-91522688D01*
X91515500Y-91522686D01*
X91422314Y-91429500D01*
X91422311Y-91429498D01*
X91422309Y-91429496D01*
X91308189Y-91363609D01*
X91308182Y-91363606D01*
X91303103Y-91362245D01*
X91258727Y-91336624D01*
X90324496Y-90402393D01*
X90296719Y-90347876D01*
X90295500Y-90332389D01*
X90295500Y-89865691D01*
X90774500Y-89865691D01*
X90774500Y-89984309D01*
X90788083Y-90035000D01*
X90805202Y-90098890D01*
X90864507Y-90201608D01*
X90864509Y-90201610D01*
X90864511Y-90201613D01*
X90948387Y-90285489D01*
X90948389Y-90285490D01*
X90948391Y-90285492D01*
X91051110Y-90344797D01*
X91051111Y-90344797D01*
X91051114Y-90344799D01*
X91165691Y-90375500D01*
X91165693Y-90375500D01*
X91284307Y-90375500D01*
X91284309Y-90375500D01*
X91398886Y-90344799D01*
X91398888Y-90344797D01*
X91398890Y-90344797D01*
X91501608Y-90285492D01*
X91501608Y-90285491D01*
X91501613Y-90285489D01*
X91585489Y-90201613D01*
X91644799Y-90098886D01*
X91675500Y-89984309D01*
X91675500Y-89865691D01*
X91644799Y-89751114D01*
X91644797Y-89751111D01*
X91644797Y-89751109D01*
X91585492Y-89648391D01*
X91585491Y-89648390D01*
X91585490Y-89648389D01*
X91585489Y-89648387D01*
X91554495Y-89617393D01*
X91526719Y-89562876D01*
X91525500Y-89547390D01*
X91525500Y-89040479D01*
X91544407Y-88982288D01*
X91554496Y-88970475D01*
X109545475Y-70979496D01*
X109599992Y-70951719D01*
X109615479Y-70950500D01*
X117322390Y-70950500D01*
X117380581Y-70969407D01*
X117392393Y-70979495D01*
X117423387Y-71010489D01*
X117423389Y-71010490D01*
X117423390Y-71010491D01*
X117423391Y-71010492D01*
X117526110Y-71069797D01*
X117526111Y-71069797D01*
X117526114Y-71069799D01*
X117640691Y-71100500D01*
X117640693Y-71100500D01*
X117759307Y-71100500D01*
X117759309Y-71100500D01*
X117873886Y-71069799D01*
X117873888Y-71069797D01*
X117873890Y-71069797D01*
X117976608Y-71010492D01*
X117976608Y-71010491D01*
X117976613Y-71010489D01*
X118060489Y-70926613D01*
X118119799Y-70823886D01*
X118150500Y-70709309D01*
X118150500Y-70590691D01*
X118119799Y-70476114D01*
X118119797Y-70476111D01*
X118119797Y-70476109D01*
X118060492Y-70373391D01*
X118060490Y-70373389D01*
X118060489Y-70373387D01*
X117976613Y-70289511D01*
X117976610Y-70289509D01*
X117976608Y-70289507D01*
X117873889Y-70230202D01*
X117873890Y-70230202D01*
X117860351Y-70226574D01*
X117759309Y-70199500D01*
X117640691Y-70199500D01*
X117570567Y-70218289D01*
X117526109Y-70230202D01*
X117423391Y-70289507D01*
X117392393Y-70320505D01*
X117337876Y-70348281D01*
X117322390Y-70349500D01*
X109410435Y-70349500D01*
X109334011Y-70369978D01*
X109334007Y-70369980D01*
X109265491Y-70409538D01*
X91040489Y-88634540D01*
X91040488Y-88634539D01*
X90984539Y-88690489D01*
X90944980Y-88759007D01*
X90944978Y-88759011D01*
X90924500Y-88835435D01*
X90924500Y-89547390D01*
X90905593Y-89605581D01*
X90895505Y-89617393D01*
X90864507Y-89648391D01*
X90805202Y-89751109D01*
X90805201Y-89751114D01*
X90774500Y-89865691D01*
X90295500Y-89865691D01*
X90295500Y-70487238D01*
X90308765Y-70437735D01*
X90311392Y-70433186D01*
X90345500Y-70305892D01*
X90345500Y-70174108D01*
X90311392Y-70046814D01*
X90311390Y-70046811D01*
X90311390Y-70046809D01*
X90245503Y-69932690D01*
X90245501Y-69932688D01*
X90245500Y-69932686D01*
X90152314Y-69839500D01*
X90152311Y-69839498D01*
X90152309Y-69839496D01*
X90038189Y-69773609D01*
X90038191Y-69773609D01*
X89988799Y-69760375D01*
X89910892Y-69739500D01*
X89779108Y-69739500D01*
X89701200Y-69760375D01*
X89651809Y-69773609D01*
X89537690Y-69839496D01*
X89444496Y-69932690D01*
X89378609Y-70046809D01*
X89378608Y-70046814D01*
X89344500Y-70174108D01*
X500500Y-70174108D01*
X500500Y-64381904D01*
X22999500Y-64381904D01*
X22999500Y-64618095D01*
X23036445Y-64851363D01*
X23109432Y-65075992D01*
X23212158Y-65277605D01*
X23216657Y-65286433D01*
X23355483Y-65477510D01*
X23522490Y-65644517D01*
X23713567Y-65783343D01*
X23924008Y-65890568D01*
X24148632Y-65963553D01*
X24148633Y-65963553D01*
X24148636Y-65963554D01*
X24381905Y-66000500D01*
X24381908Y-66000500D01*
X24618095Y-66000500D01*
X24851363Y-65963554D01*
X24851364Y-65963553D01*
X24851368Y-65963553D01*
X25075992Y-65890568D01*
X25286433Y-65783343D01*
X25477510Y-65644517D01*
X25644517Y-65477510D01*
X25783343Y-65286433D01*
X25890568Y-65075992D01*
X25963553Y-64851368D01*
X25964042Y-64848281D01*
X26000500Y-64618095D01*
X26000500Y-64381904D01*
X80999500Y-64381904D01*
X80999500Y-64618095D01*
X81036445Y-64851363D01*
X81109432Y-65075992D01*
X81212158Y-65277605D01*
X81216657Y-65286433D01*
X81355483Y-65477510D01*
X81522490Y-65644517D01*
X81713567Y-65783343D01*
X81924008Y-65890568D01*
X82148632Y-65963553D01*
X82148633Y-65963553D01*
X82148636Y-65963554D01*
X82381905Y-66000500D01*
X82381908Y-66000500D01*
X82618095Y-66000500D01*
X82851363Y-65963554D01*
X82851364Y-65963553D01*
X82851368Y-65963553D01*
X83075992Y-65890568D01*
X83286433Y-65783343D01*
X83477510Y-65644517D01*
X83644517Y-65477510D01*
X83783343Y-65286433D01*
X83890568Y-65075992D01*
X83963553Y-64851368D01*
X83964042Y-64848281D01*
X84000500Y-64618095D01*
X84000500Y-64381904D01*
X83963554Y-64148636D01*
X83963553Y-64148632D01*
X83890568Y-63924008D01*
X83783343Y-63713567D01*
X83644517Y-63522490D01*
X83477510Y-63355483D01*
X83286433Y-63216657D01*
X83286432Y-63216656D01*
X83286430Y-63216655D01*
X83075992Y-63109432D01*
X82851363Y-63036445D01*
X82618095Y-62999500D01*
X82618092Y-62999500D01*
X82381908Y-62999500D01*
X82381905Y-62999500D01*
X82148636Y-63036445D01*
X81924007Y-63109432D01*
X81713569Y-63216655D01*
X81522491Y-63355482D01*
X81355482Y-63522491D01*
X81216655Y-63713569D01*
X81109432Y-63924007D01*
X81036445Y-64148636D01*
X80999500Y-64381904D01*
X26000500Y-64381904D01*
X25963554Y-64148636D01*
X25963553Y-64148632D01*
X25890568Y-63924008D01*
X25783343Y-63713567D01*
X25644517Y-63522490D01*
X25477510Y-63355483D01*
X25286433Y-63216657D01*
X25286432Y-63216656D01*
X25286430Y-63216655D01*
X25075992Y-63109432D01*
X24851363Y-63036445D01*
X24618095Y-62999500D01*
X24618092Y-62999500D01*
X24381908Y-62999500D01*
X24381905Y-62999500D01*
X24148636Y-63036445D01*
X23924007Y-63109432D01*
X23713569Y-63216655D01*
X23522491Y-63355482D01*
X23355482Y-63522491D01*
X23216655Y-63713569D01*
X23109432Y-63924007D01*
X23036445Y-64148636D01*
X22999500Y-64381904D01*
X500500Y-64381904D01*
X500500Y-38710435D01*
X113649500Y-38710435D01*
X113649500Y-54289564D01*
X113669978Y-54365988D01*
X113669980Y-54365992D01*
X113709538Y-54434508D01*
X113709540Y-54434511D01*
X124609540Y-65334511D01*
X124609539Y-65334511D01*
X124665489Y-65390460D01*
X124734007Y-65430019D01*
X124734011Y-65430021D01*
X124810435Y-65450499D01*
X124810437Y-65450500D01*
X124810438Y-65450500D01*
X124889562Y-65450500D01*
X127672390Y-65450500D01*
X127730581Y-65469407D01*
X127742393Y-65479495D01*
X127773387Y-65510489D01*
X127773389Y-65510490D01*
X127773390Y-65510491D01*
X127773391Y-65510492D01*
X127876110Y-65569797D01*
X127876111Y-65569797D01*
X127876114Y-65569799D01*
X127990691Y-65600500D01*
X127990693Y-65600500D01*
X128109307Y-65600500D01*
X128109309Y-65600500D01*
X128223886Y-65569799D01*
X128223888Y-65569797D01*
X128223890Y-65569797D01*
X128326608Y-65510492D01*
X128326608Y-65510491D01*
X128326613Y-65510489D01*
X128410489Y-65426613D01*
X128431362Y-65390460D01*
X128469797Y-65323890D01*
X128469797Y-65323888D01*
X128469799Y-65323886D01*
X128500500Y-65209309D01*
X128500500Y-65090691D01*
X128469799Y-64976114D01*
X128469797Y-64976111D01*
X128469797Y-64976109D01*
X128410492Y-64873391D01*
X128410490Y-64873389D01*
X128410489Y-64873387D01*
X128326613Y-64789511D01*
X128326610Y-64789509D01*
X128326608Y-64789507D01*
X128223889Y-64730202D01*
X128223890Y-64730202D01*
X128210351Y-64726574D01*
X128109309Y-64699500D01*
X127990691Y-64699500D01*
X127920567Y-64718289D01*
X127876109Y-64730202D01*
X127773391Y-64789507D01*
X127742393Y-64820505D01*
X127687876Y-64848281D01*
X127672390Y-64849500D01*
X125015479Y-64849500D01*
X124957288Y-64830593D01*
X124945475Y-64820504D01*
X114279496Y-54154525D01*
X114251719Y-54100008D01*
X114250500Y-54084521D01*
X114250500Y-49680299D01*
X115550000Y-49680299D01*
X115550000Y-50349999D01*
X115550001Y-50350000D01*
X116138120Y-50350000D01*
X116134075Y-50357007D01*
X116100000Y-50484174D01*
X116100000Y-50615826D01*
X116134075Y-50742993D01*
X116138120Y-50750000D01*
X115550001Y-50750000D01*
X115550000Y-50750001D01*
X115550000Y-51419700D01*
X115561603Y-51478036D01*
X115605806Y-51544189D01*
X115605810Y-51544193D01*
X115671963Y-51588396D01*
X115730299Y-51599999D01*
X115730303Y-51600000D01*
X116399999Y-51600000D01*
X116400000Y-51599999D01*
X116400000Y-51011879D01*
X116407007Y-51015925D01*
X116534174Y-51050000D01*
X116665826Y-51050000D01*
X116792993Y-51015925D01*
X116800000Y-51011879D01*
X116800000Y-51599999D01*
X116800001Y-51600000D01*
X117469697Y-51600000D01*
X117469700Y-51599999D01*
X117528036Y-51588396D01*
X117594189Y-51544193D01*
X117594193Y-51544189D01*
X117638396Y-51478036D01*
X117649999Y-51419700D01*
X117650000Y-51419697D01*
X117650000Y-50750001D01*
X117649999Y-50750000D01*
X117061880Y-50750000D01*
X117065925Y-50742993D01*
X117100000Y-50615826D01*
X117100000Y-50484174D01*
X117065925Y-50357007D01*
X117061880Y-50350000D01*
X117649999Y-50350000D01*
X117650000Y-50349999D01*
X117650000Y-49680302D01*
X117649999Y-49680299D01*
X117638396Y-49621963D01*
X117594193Y-49555810D01*
X117594189Y-49555806D01*
X117528036Y-49511603D01*
X117469700Y-49500000D01*
X116800001Y-49500000D01*
X116800000Y-49500001D01*
X116800000Y-50088120D01*
X116792993Y-50084075D01*
X116665826Y-50050000D01*
X116534174Y-50050000D01*
X116407007Y-50084075D01*
X116400000Y-50088120D01*
X116400000Y-49500001D01*
X116399999Y-49500000D01*
X115730299Y-49500000D01*
X115671963Y-49511603D01*
X115605810Y-49555806D01*
X115605806Y-49555810D01*
X115561603Y-49621963D01*
X115550000Y-49680299D01*
X114250500Y-49680299D01*
X114250500Y-40286532D01*
X115549500Y-40286532D01*
X115549500Y-40493467D01*
X115589869Y-40696418D01*
X115669058Y-40887597D01*
X115669059Y-40887598D01*
X115784023Y-41059655D01*
X115930345Y-41205977D01*
X116102402Y-41320941D01*
X116293580Y-41400130D01*
X116496535Y-41440500D01*
X116496536Y-41440500D01*
X116703464Y-41440500D01*
X116703465Y-41440500D01*
X116906420Y-41400130D01*
X117097598Y-41320941D01*
X117269655Y-41205977D01*
X117415977Y-41059655D01*
X117530941Y-40887598D01*
X117587268Y-40751614D01*
X117627005Y-40705088D01*
X117678732Y-40690500D01*
X118374521Y-40690500D01*
X118432712Y-40709407D01*
X118444525Y-40719496D01*
X119330453Y-41605424D01*
X119358230Y-41659941D01*
X119359449Y-41675428D01*
X119359449Y-43045470D01*
X119340542Y-43103661D01*
X119291042Y-43139625D01*
X119229856Y-43139625D01*
X119190446Y-43115474D01*
X118764510Y-42689539D01*
X118695992Y-42649980D01*
X118695988Y-42649978D01*
X118619564Y-42629500D01*
X118619562Y-42629500D01*
X117678732Y-42629500D01*
X117620541Y-42610593D01*
X117587268Y-42568386D01*
X117530941Y-42432402D01*
X117415979Y-42260348D01*
X117415977Y-42260345D01*
X117269655Y-42114023D01*
X117097598Y-41999059D01*
X117097599Y-41999059D01*
X117097597Y-41999058D01*
X116906418Y-41919869D01*
X116703467Y-41879500D01*
X116703465Y-41879500D01*
X116496535Y-41879500D01*
X116496532Y-41879500D01*
X116293581Y-41919869D01*
X116102402Y-41999058D01*
X115930348Y-42114020D01*
X115784020Y-42260348D01*
X115669058Y-42432402D01*
X115589869Y-42623581D01*
X115549500Y-42826532D01*
X115549500Y-43033467D01*
X115589869Y-43236418D01*
X115669058Y-43427597D01*
X115669059Y-43427598D01*
X115784023Y-43599655D01*
X115930345Y-43745977D01*
X116102402Y-43860941D01*
X116293580Y-43940130D01*
X116496535Y-43980500D01*
X116496536Y-43980500D01*
X116703464Y-43980500D01*
X116703465Y-43980500D01*
X116906420Y-43940130D01*
X117097598Y-43860941D01*
X117269655Y-43745977D01*
X117415977Y-43599655D01*
X117530941Y-43427598D01*
X117587268Y-43291614D01*
X117627005Y-43245088D01*
X117678732Y-43230500D01*
X118414521Y-43230500D01*
X118472712Y-43249407D01*
X118484525Y-43259496D01*
X118980453Y-43755424D01*
X119008230Y-43809941D01*
X119009449Y-43825428D01*
X119009449Y-45070501D01*
X118990542Y-45128692D01*
X118941042Y-45164656D01*
X118910449Y-45169501D01*
X117678732Y-45169501D01*
X117620541Y-45150594D01*
X117587268Y-45108387D01*
X117530941Y-44972403D01*
X117415979Y-44800349D01*
X117415977Y-44800346D01*
X117269655Y-44654024D01*
X117097598Y-44539060D01*
X117097599Y-44539060D01*
X117097597Y-44539059D01*
X116906418Y-44459870D01*
X116703467Y-44419501D01*
X116703465Y-44419501D01*
X116496535Y-44419501D01*
X116496532Y-44419501D01*
X116293581Y-44459870D01*
X116102402Y-44539059D01*
X115930348Y-44654021D01*
X115784020Y-44800349D01*
X115669058Y-44972403D01*
X115589869Y-45163582D01*
X115549500Y-45366533D01*
X115549500Y-45573468D01*
X115589869Y-45776419D01*
X115669058Y-45967598D01*
X115669059Y-45967599D01*
X115784023Y-46139656D01*
X115930345Y-46285978D01*
X116102402Y-46400942D01*
X116293580Y-46480131D01*
X116496535Y-46520501D01*
X116496536Y-46520501D01*
X116703464Y-46520501D01*
X116703465Y-46520501D01*
X116906420Y-46480131D01*
X117097598Y-46400942D01*
X117269655Y-46285978D01*
X117415977Y-46139656D01*
X117530941Y-45967599D01*
X117587268Y-45831615D01*
X117627005Y-45785089D01*
X117678732Y-45770501D01*
X118999496Y-45770501D01*
X119057687Y-45789408D01*
X119069500Y-45799497D01*
X120810499Y-47540496D01*
X120838276Y-47595013D01*
X120828705Y-47655445D01*
X120785440Y-47698710D01*
X120740495Y-47709500D01*
X117678732Y-47709500D01*
X117620541Y-47690593D01*
X117587268Y-47648386D01*
X117530941Y-47512402D01*
X117415979Y-47340348D01*
X117415977Y-47340345D01*
X117269655Y-47194023D01*
X117097598Y-47079059D01*
X117097599Y-47079059D01*
X117097597Y-47079058D01*
X116906418Y-46999869D01*
X116703467Y-46959500D01*
X116703465Y-46959500D01*
X116496535Y-46959500D01*
X116496532Y-46959500D01*
X116293581Y-46999869D01*
X116102402Y-47079058D01*
X115930348Y-47194020D01*
X115784020Y-47340348D01*
X115669058Y-47512402D01*
X115589869Y-47703581D01*
X115549500Y-47906532D01*
X115549500Y-48113467D01*
X115589869Y-48316418D01*
X115669058Y-48507597D01*
X115669059Y-48507598D01*
X115784023Y-48679655D01*
X115930345Y-48825977D01*
X116102402Y-48940941D01*
X116293580Y-49020130D01*
X116496535Y-49060500D01*
X116496536Y-49060500D01*
X116703464Y-49060500D01*
X116703465Y-49060500D01*
X116906420Y-49020130D01*
X117097598Y-48940941D01*
X117269655Y-48825977D01*
X117415977Y-48679655D01*
X117530941Y-48507598D01*
X117587268Y-48371614D01*
X117627005Y-48325088D01*
X117678732Y-48310500D01*
X121044521Y-48310500D01*
X121102712Y-48329407D01*
X121114525Y-48339496D01*
X130065489Y-57290460D01*
X130065491Y-57290461D01*
X130065492Y-57290462D01*
X130065493Y-57290463D01*
X130134008Y-57330020D01*
X130134006Y-57330020D01*
X130134010Y-57330021D01*
X130134012Y-57330022D01*
X130210438Y-57350500D01*
X130722390Y-57350500D01*
X130780581Y-57369407D01*
X130792393Y-57379495D01*
X130823387Y-57410489D01*
X130823389Y-57410490D01*
X130823390Y-57410491D01*
X130823391Y-57410492D01*
X130926110Y-57469797D01*
X130926111Y-57469797D01*
X130926114Y-57469799D01*
X131040691Y-57500500D01*
X131040693Y-57500500D01*
X131159307Y-57500500D01*
X131159309Y-57500500D01*
X131273886Y-57469799D01*
X131273888Y-57469797D01*
X131273890Y-57469797D01*
X131376608Y-57410492D01*
X131376608Y-57410491D01*
X131376613Y-57410489D01*
X131460489Y-57326613D01*
X131460492Y-57326608D01*
X131519797Y-57223890D01*
X131519797Y-57223888D01*
X131519799Y-57223886D01*
X131550500Y-57109309D01*
X131550500Y-57092222D01*
X131569407Y-57034031D01*
X131618907Y-56998067D01*
X131623834Y-56996607D01*
X131723886Y-56969799D01*
X131826613Y-56910489D01*
X131910489Y-56826613D01*
X131969799Y-56723886D01*
X132000500Y-56609309D01*
X132000500Y-56542222D01*
X132019407Y-56484031D01*
X132068907Y-56448067D01*
X132073834Y-56446607D01*
X132173886Y-56419799D01*
X132276613Y-56360489D01*
X132360489Y-56276613D01*
X132419799Y-56173886D01*
X132450500Y-56059309D01*
X132450500Y-55999500D01*
X132469407Y-55941309D01*
X132518907Y-55905345D01*
X132549500Y-55900500D01*
X132559307Y-55900500D01*
X132559309Y-55900500D01*
X132673886Y-55869799D01*
X132673888Y-55869797D01*
X132673890Y-55869797D01*
X132776608Y-55810492D01*
X132776608Y-55810491D01*
X132776613Y-55810489D01*
X132860489Y-55726613D01*
X132919799Y-55623886D01*
X132950500Y-55509309D01*
X132950500Y-55390691D01*
X132919799Y-55276114D01*
X132919797Y-55276111D01*
X132919797Y-55276109D01*
X132860492Y-55173391D01*
X132860490Y-55173389D01*
X132860489Y-55173387D01*
X132776613Y-55089511D01*
X132776610Y-55089509D01*
X132776608Y-55089507D01*
X132673889Y-55030202D01*
X132673890Y-55030202D01*
X132660351Y-55026574D01*
X132559309Y-54999500D01*
X132440691Y-54999500D01*
X132370567Y-55018289D01*
X132326109Y-55030202D01*
X132223391Y-55089507D01*
X132192393Y-55120505D01*
X132137876Y-55148281D01*
X132122390Y-55149500D01*
X130301815Y-55149500D01*
X130243624Y-55130593D01*
X130231811Y-55120504D01*
X119989445Y-44878138D01*
X119961668Y-44823621D01*
X119960449Y-44808134D01*
X119960449Y-41470386D01*
X119960448Y-41470384D01*
X119939970Y-41393960D01*
X119939968Y-41393956D01*
X119900409Y-41325438D01*
X119844460Y-41269488D01*
X119844460Y-41269489D01*
X118724511Y-40149540D01*
X118724508Y-40149538D01*
X118655992Y-40109980D01*
X118655988Y-40109978D01*
X118579564Y-40089500D01*
X118579562Y-40089500D01*
X117678732Y-40089500D01*
X117620541Y-40070593D01*
X117587268Y-40028386D01*
X117530941Y-39892402D01*
X117415979Y-39720348D01*
X117415977Y-39720345D01*
X117269655Y-39574023D01*
X117097598Y-39459059D01*
X117097599Y-39459059D01*
X117097597Y-39459058D01*
X116906418Y-39379869D01*
X116703467Y-39339500D01*
X116703465Y-39339500D01*
X116496535Y-39339500D01*
X116496532Y-39339500D01*
X116293581Y-39379869D01*
X116102402Y-39459058D01*
X115930348Y-39574020D01*
X115784020Y-39720348D01*
X115669058Y-39892402D01*
X115589869Y-40083581D01*
X115549500Y-40286532D01*
X114250500Y-40286532D01*
X114250500Y-38915479D01*
X114269407Y-38857288D01*
X114279496Y-38845475D01*
X114945475Y-38179496D01*
X114999992Y-38151719D01*
X115015479Y-38150500D01*
X115521268Y-38150500D01*
X115579459Y-38169407D01*
X115612732Y-38211614D01*
X115669058Y-38347597D01*
X115777264Y-38509540D01*
X115784023Y-38519655D01*
X115930345Y-38665977D01*
X116102402Y-38780941D01*
X116293580Y-38860130D01*
X116496535Y-38900500D01*
X116496536Y-38900500D01*
X116703464Y-38900500D01*
X116703465Y-38900500D01*
X116906420Y-38860130D01*
X117097598Y-38780941D01*
X117269655Y-38665977D01*
X117415977Y-38519655D01*
X117530941Y-38347598D01*
X117610130Y-38156420D01*
X117650500Y-37953465D01*
X117650500Y-37746535D01*
X117610130Y-37543580D01*
X117530941Y-37352402D01*
X117415977Y-37180345D01*
X117269655Y-37034023D01*
X117097598Y-36919059D01*
X117097599Y-36919059D01*
X117097597Y-36919058D01*
X116906418Y-36839869D01*
X116703467Y-36799500D01*
X116703465Y-36799500D01*
X116496535Y-36799500D01*
X116496532Y-36799500D01*
X116293581Y-36839869D01*
X116102402Y-36919058D01*
X115930348Y-37034020D01*
X115784020Y-37180348D01*
X115669058Y-37352402D01*
X115612732Y-37488386D01*
X115572995Y-37534912D01*
X115521268Y-37549500D01*
X114810435Y-37549500D01*
X114734011Y-37569978D01*
X114734007Y-37569980D01*
X114665491Y-37609538D01*
X113765489Y-38509540D01*
X113765488Y-38509539D01*
X113709539Y-38565489D01*
X113669980Y-38634007D01*
X113669978Y-38634011D01*
X113649500Y-38710435D01*
X500500Y-38710435D01*
X500500Y-32666531D01*
X115549500Y-32666531D01*
X115549500Y-32873466D01*
X115589869Y-33076417D01*
X115669058Y-33267596D01*
X115669059Y-33267597D01*
X115784023Y-33439654D01*
X115930345Y-33585976D01*
X116102402Y-33700940D01*
X116293580Y-33780129D01*
X116496535Y-33820499D01*
X116496536Y-33820499D01*
X116703464Y-33820499D01*
X116703465Y-33820499D01*
X116906420Y-33780129D01*
X117097598Y-33700940D01*
X117269655Y-33585976D01*
X117415977Y-33439654D01*
X117530941Y-33267597D01*
X117587268Y-33131613D01*
X117627005Y-33085087D01*
X117678732Y-33070499D01*
X120029520Y-33070499D01*
X120087711Y-33089406D01*
X120099524Y-33099495D01*
X121840525Y-34840496D01*
X121868302Y-34895013D01*
X121858731Y-34955445D01*
X121815466Y-34998710D01*
X121770521Y-35009500D01*
X117678732Y-35009500D01*
X117620541Y-34990593D01*
X117587268Y-34948386D01*
X117530941Y-34812402D01*
X117415979Y-34640348D01*
X117415977Y-34640345D01*
X117269655Y-34494023D01*
X117097598Y-34379059D01*
X117097599Y-34379059D01*
X117097597Y-34379058D01*
X116906418Y-34299869D01*
X116703467Y-34259500D01*
X116703465Y-34259500D01*
X116496535Y-34259500D01*
X116496532Y-34259500D01*
X116293581Y-34299869D01*
X116102402Y-34379058D01*
X115930348Y-34494020D01*
X115784020Y-34640348D01*
X115669058Y-34812402D01*
X115589869Y-35003581D01*
X115549500Y-35206532D01*
X115549500Y-35413467D01*
X115589869Y-35616418D01*
X115669058Y-35807597D01*
X115669059Y-35807598D01*
X115784023Y-35979655D01*
X115930345Y-36125977D01*
X116102402Y-36240941D01*
X116293580Y-36320130D01*
X116496535Y-36360500D01*
X116496536Y-36360500D01*
X116703464Y-36360500D01*
X116703465Y-36360500D01*
X116906420Y-36320130D01*
X117097598Y-36240941D01*
X117269655Y-36125977D01*
X117415977Y-35979655D01*
X117530941Y-35807598D01*
X117587268Y-35671614D01*
X117627005Y-35625088D01*
X117678732Y-35610500D01*
X122074547Y-35610500D01*
X122132738Y-35629407D01*
X122144551Y-35639496D01*
X150545504Y-64040449D01*
X150573281Y-64094966D01*
X150574500Y-64110453D01*
X150574500Y-81159521D01*
X150555593Y-81217712D01*
X150545504Y-81229525D01*
X148665489Y-83109540D01*
X148665488Y-83109539D01*
X148609539Y-83165489D01*
X148569980Y-83234007D01*
X148569978Y-83234011D01*
X148549500Y-83310435D01*
X148549500Y-86097390D01*
X148530593Y-86155581D01*
X148520505Y-86167393D01*
X148489507Y-86198391D01*
X148430202Y-86301109D01*
X148430201Y-86301114D01*
X148399500Y-86415691D01*
X148399500Y-86534309D01*
X148414688Y-86590990D01*
X148430202Y-86648890D01*
X148489507Y-86751608D01*
X148489509Y-86751610D01*
X148489511Y-86751613D01*
X148573387Y-86835489D01*
X148573389Y-86835490D01*
X148573391Y-86835492D01*
X148676110Y-86894797D01*
X148676111Y-86894797D01*
X148676114Y-86894799D01*
X148790691Y-86925500D01*
X148790693Y-86925500D01*
X148909307Y-86925500D01*
X148909309Y-86925500D01*
X149023886Y-86894799D01*
X149023888Y-86894797D01*
X149023890Y-86894797D01*
X149126608Y-86835492D01*
X149126608Y-86835491D01*
X149126613Y-86835489D01*
X149210489Y-86751613D01*
X149269799Y-86648886D01*
X149300500Y-86534309D01*
X149300500Y-86415691D01*
X149269799Y-86301114D01*
X149269797Y-86301111D01*
X149269797Y-86301109D01*
X149210492Y-86198391D01*
X149210491Y-86198390D01*
X149210490Y-86198389D01*
X149210489Y-86198387D01*
X149179495Y-86167393D01*
X149151719Y-86112876D01*
X149150500Y-86097390D01*
X149150500Y-83515479D01*
X149169407Y-83457288D01*
X149179496Y-83445475D01*
X149630496Y-82994475D01*
X149685013Y-82966698D01*
X149745445Y-82976269D01*
X149788710Y-83019534D01*
X149799500Y-83064479D01*
X149799500Y-86097390D01*
X149780593Y-86155581D01*
X149770505Y-86167393D01*
X149739507Y-86198391D01*
X149680202Y-86301109D01*
X149680201Y-86301114D01*
X149649500Y-86415691D01*
X149649500Y-86534309D01*
X149664688Y-86590990D01*
X149680202Y-86648890D01*
X149739507Y-86751608D01*
X149739509Y-86751610D01*
X149739511Y-86751613D01*
X149823387Y-86835489D01*
X149823389Y-86835490D01*
X149823391Y-86835492D01*
X149926110Y-86894797D01*
X149926111Y-86894797D01*
X149926114Y-86894799D01*
X150040691Y-86925500D01*
X150040693Y-86925500D01*
X150159307Y-86925500D01*
X150159309Y-86925500D01*
X150273886Y-86894799D01*
X150273888Y-86894797D01*
X150273890Y-86894797D01*
X150376608Y-86835492D01*
X150376608Y-86835491D01*
X150376613Y-86835489D01*
X150460489Y-86751613D01*
X150519799Y-86648886D01*
X150550500Y-86534309D01*
X150550500Y-86415691D01*
X150519799Y-86301114D01*
X150519797Y-86301111D01*
X150519797Y-86301109D01*
X150460492Y-86198391D01*
X150460491Y-86198390D01*
X150460490Y-86198389D01*
X150460489Y-86198387D01*
X150429495Y-86167393D01*
X150401719Y-86112876D01*
X150400500Y-86097390D01*
X150400500Y-82765478D01*
X150419407Y-82707287D01*
X150429490Y-82695480D01*
X151465460Y-81659511D01*
X151485096Y-81625500D01*
X151505021Y-81590989D01*
X151525500Y-81514562D01*
X151525500Y-63760438D01*
X151505021Y-63684011D01*
X151465460Y-63615489D01*
X151450471Y-63600500D01*
X151409511Y-63559539D01*
X151409511Y-63559540D01*
X120379510Y-32529539D01*
X120379507Y-32529537D01*
X120310991Y-32489979D01*
X120310987Y-32489977D01*
X120234563Y-32469499D01*
X120234561Y-32469499D01*
X117678732Y-32469499D01*
X117620541Y-32450592D01*
X117587268Y-32408385D01*
X117530941Y-32272401D01*
X117415979Y-32100347D01*
X117415977Y-32100344D01*
X117269655Y-31954022D01*
X117097598Y-31839058D01*
X117097599Y-31839058D01*
X117097597Y-31839057D01*
X116906418Y-31759868D01*
X116703467Y-31719499D01*
X116703465Y-31719499D01*
X116496535Y-31719499D01*
X116496532Y-31719499D01*
X116293581Y-31759868D01*
X116102402Y-31839057D01*
X115930348Y-31954019D01*
X115784020Y-32100347D01*
X115669058Y-32272401D01*
X115589869Y-32463580D01*
X115549500Y-32666531D01*
X500500Y-32666531D01*
X500500Y-30126532D01*
X115549500Y-30126532D01*
X115549500Y-30333467D01*
X115589869Y-30536418D01*
X115669058Y-30727597D01*
X115669059Y-30727598D01*
X115784023Y-30899655D01*
X115930345Y-31045977D01*
X116102402Y-31160941D01*
X116293580Y-31240130D01*
X116496535Y-31280500D01*
X116496536Y-31280500D01*
X116703464Y-31280500D01*
X116703465Y-31280500D01*
X116906420Y-31240130D01*
X117097598Y-31160941D01*
X117269655Y-31045977D01*
X117415977Y-30899655D01*
X117530941Y-30727598D01*
X117533012Y-30724499D01*
X117581062Y-30686619D01*
X117615328Y-30680500D01*
X120052389Y-30680500D01*
X120110580Y-30699407D01*
X120122393Y-30709496D01*
X137323386Y-47910489D01*
X137323388Y-47910490D01*
X137323389Y-47910491D01*
X137323390Y-47910492D01*
X137426107Y-47969796D01*
X137426109Y-47969797D01*
X137426113Y-47969799D01*
X137450322Y-47976284D01*
X137450325Y-47976287D01*
X137450326Y-47976286D01*
X137540688Y-48000499D01*
X137540690Y-48000500D01*
X137540691Y-48000500D01*
X137659309Y-48000500D01*
X137749669Y-47976287D01*
X137749672Y-47976287D01*
X137762903Y-47972741D01*
X137773887Y-47969799D01*
X137876614Y-47910489D01*
X137960489Y-47826614D01*
X138019799Y-47723887D01*
X138030141Y-47685288D01*
X138050500Y-47609309D01*
X138050500Y-47490691D01*
X138019799Y-47376114D01*
X138019799Y-47376113D01*
X138019799Y-47376112D01*
X137960492Y-47273390D01*
X137960490Y-47273388D01*
X137960489Y-47273386D01*
X120556614Y-29869511D01*
X120556611Y-29869509D01*
X120556609Y-29869507D01*
X120453890Y-29810202D01*
X120453886Y-29810200D01*
X120429673Y-29803712D01*
X120429673Y-29803713D01*
X120339309Y-29779500D01*
X120339307Y-29779500D01*
X117615328Y-29779500D01*
X117557137Y-29760593D01*
X117533012Y-29735501D01*
X117415979Y-29560348D01*
X117415977Y-29560345D01*
X117269655Y-29414023D01*
X117097598Y-29299059D01*
X117097599Y-29299059D01*
X117097597Y-29299058D01*
X116906418Y-29219869D01*
X116703467Y-29179500D01*
X116703465Y-29179500D01*
X116496535Y-29179500D01*
X116496532Y-29179500D01*
X116293581Y-29219869D01*
X116102402Y-29299058D01*
X115930348Y-29414020D01*
X115784020Y-29560348D01*
X115669058Y-29732402D01*
X115589869Y-29923581D01*
X115549500Y-30126532D01*
X500500Y-30126532D01*
X500500Y-18765788D01*
X149295000Y-18765788D01*
X149295000Y-19949999D01*
X149295001Y-19950000D01*
X150718130Y-19950000D01*
X150695000Y-20066282D01*
X150695000Y-20233718D01*
X150718130Y-20350000D01*
X149295002Y-20350000D01*
X149295001Y-20350001D01*
X149295001Y-21534203D01*
X149297850Y-21564600D01*
X149297850Y-21564602D01*
X149342654Y-21692647D01*
X149423207Y-21801790D01*
X149423209Y-21801792D01*
X149532352Y-21882345D01*
X149660398Y-21927149D01*
X149690789Y-21929999D01*
X151344998Y-21929999D01*
X151345000Y-21929998D01*
X151345000Y-20976870D01*
X151461282Y-21000000D01*
X151628718Y-21000000D01*
X151745000Y-20976870D01*
X151745000Y-21929998D01*
X151745001Y-21929999D01*
X153399203Y-21929999D01*
X153429600Y-21927149D01*
X153429602Y-21927149D01*
X153557647Y-21882345D01*
X153666790Y-21801792D01*
X153666792Y-21801790D01*
X153747345Y-21692647D01*
X153792149Y-21564601D01*
X153794999Y-21534211D01*
X153795000Y-21534210D01*
X153795000Y-20350001D01*
X153794999Y-20350000D01*
X152371870Y-20350000D01*
X152395000Y-20233718D01*
X152395000Y-20066282D01*
X152371870Y-19950000D01*
X153794998Y-19950000D01*
X153794999Y-19949999D01*
X153794999Y-18765796D01*
X153792149Y-18735399D01*
X153792149Y-18735397D01*
X153747345Y-18607352D01*
X153666792Y-18498209D01*
X153666790Y-18498207D01*
X153557647Y-18417654D01*
X153429601Y-18372850D01*
X153399211Y-18370000D01*
X151745001Y-18370000D01*
X151745000Y-18370001D01*
X151745000Y-19323129D01*
X151628718Y-19300000D01*
X151461282Y-19300000D01*
X151345000Y-19323129D01*
X151345000Y-18370001D01*
X151344999Y-18370000D01*
X149690796Y-18370000D01*
X149660399Y-18372850D01*
X149660397Y-18372850D01*
X149532352Y-18417654D01*
X149423209Y-18498207D01*
X149423207Y-18498209D01*
X149342654Y-18607352D01*
X149297850Y-18735398D01*
X149295000Y-18765788D01*
X500500Y-18765788D01*
X500500Y-15381904D01*
X22999500Y-15381904D01*
X22999500Y-15618095D01*
X23036445Y-15851363D01*
X23036447Y-15851368D01*
X23109432Y-16075992D01*
X23216657Y-16286433D01*
X23355483Y-16477510D01*
X23522490Y-16644517D01*
X23713567Y-16783343D01*
X23924008Y-16890568D01*
X24148632Y-16963553D01*
X24148633Y-16963553D01*
X24148636Y-16963554D01*
X24381905Y-17000500D01*
X24381908Y-17000500D01*
X24618095Y-17000500D01*
X24851363Y-16963554D01*
X24851364Y-16963553D01*
X24851368Y-16963553D01*
X25075992Y-16890568D01*
X25286433Y-16783343D01*
X25477510Y-16644517D01*
X25644517Y-16477510D01*
X25783343Y-16286433D01*
X25890568Y-16075992D01*
X25963553Y-15851368D01*
X26000500Y-15618092D01*
X26000500Y-15381908D01*
X26000500Y-15381904D01*
X80999500Y-15381904D01*
X80999500Y-15618095D01*
X81036445Y-15851363D01*
X81036447Y-15851368D01*
X81109432Y-16075992D01*
X81216657Y-16286433D01*
X81355483Y-16477510D01*
X81522490Y-16644517D01*
X81713567Y-16783343D01*
X81924008Y-16890568D01*
X82148632Y-16963553D01*
X82148633Y-16963553D01*
X82148636Y-16963554D01*
X82381905Y-17000500D01*
X82381908Y-17000500D01*
X82618095Y-17000500D01*
X82851363Y-16963554D01*
X82851364Y-16963553D01*
X82851368Y-16963553D01*
X83075992Y-16890568D01*
X83286433Y-16783343D01*
X83477510Y-16644517D01*
X83644517Y-16477510D01*
X83783343Y-16286433D01*
X83890568Y-16075992D01*
X83891443Y-16073299D01*
X149294500Y-16073299D01*
X149294500Y-16306700D01*
X149324964Y-16538096D01*
X149324964Y-16538101D01*
X149385372Y-16763543D01*
X149385376Y-16763556D01*
X149474688Y-16979177D01*
X149474690Y-16979181D01*
X149474692Y-16979185D01*
X149591392Y-17181315D01*
X149591394Y-17181318D01*
X149733471Y-17366477D01*
X149733473Y-17366479D01*
X149733477Y-17366484D01*
X149898516Y-17531523D01*
X149898520Y-17531526D01*
X149898522Y-17531528D01*
X150083681Y-17673605D01*
X150083685Y-17673608D01*
X150285815Y-17790308D01*
X150501449Y-17879626D01*
X150726896Y-17940035D01*
X150958300Y-17970500D01*
X150958301Y-17970500D01*
X152131699Y-17970500D01*
X152131700Y-17970500D01*
X152363104Y-17940035D01*
X152588551Y-17879626D01*
X152804185Y-17790308D01*
X153006315Y-17673608D01*
X153191484Y-17531523D01*
X153356523Y-17366484D01*
X153498608Y-17181315D01*
X153615308Y-16979185D01*
X153704626Y-16763551D01*
X153765035Y-16538104D01*
X153795500Y-16306700D01*
X153795500Y-16073300D01*
X153765035Y-15841896D01*
X153704626Y-15616449D01*
X153615308Y-15400815D01*
X153498608Y-15198685D01*
X153356523Y-15013516D01*
X153191484Y-14848477D01*
X153191479Y-14848473D01*
X153191477Y-14848471D01*
X153006318Y-14706394D01*
X153006315Y-14706392D01*
X152804185Y-14589692D01*
X152804181Y-14589690D01*
X152804177Y-14589688D01*
X152588556Y-14500376D01*
X152588555Y-14500375D01*
X152588551Y-14500374D01*
X152363104Y-14439965D01*
X152363099Y-14439964D01*
X152363098Y-14439964D01*
X152131700Y-14409500D01*
X150958300Y-14409500D01*
X150958299Y-14409500D01*
X150726903Y-14439964D01*
X150726898Y-14439964D01*
X150501456Y-14500372D01*
X150501443Y-14500376D01*
X150285822Y-14589688D01*
X150083681Y-14706394D01*
X149898522Y-14848471D01*
X149733471Y-15013522D01*
X149591394Y-15198681D01*
X149474688Y-15400822D01*
X149385376Y-15616443D01*
X149385372Y-15616456D01*
X149324964Y-15841898D01*
X149324964Y-15841903D01*
X149294500Y-16073299D01*
X83891443Y-16073299D01*
X83963553Y-15851368D01*
X84000500Y-15618092D01*
X84000500Y-15381908D01*
X84000500Y-15381904D01*
X83963554Y-15148636D01*
X83963553Y-15148632D01*
X83890568Y-14924008D01*
X83783343Y-14713567D01*
X83644517Y-14522490D01*
X83477510Y-14355483D01*
X83286433Y-14216657D01*
X83286432Y-14216656D01*
X83286430Y-14216655D01*
X83075992Y-14109432D01*
X82851363Y-14036445D01*
X82618095Y-13999500D01*
X82618092Y-13999500D01*
X82381908Y-13999500D01*
X82381905Y-13999500D01*
X82148636Y-14036445D01*
X81924007Y-14109432D01*
X81713569Y-14216655D01*
X81522491Y-14355482D01*
X81355482Y-14522491D01*
X81216655Y-14713569D01*
X81109432Y-14924007D01*
X81036445Y-15148636D01*
X80999500Y-15381904D01*
X26000500Y-15381904D01*
X25963554Y-15148636D01*
X25963553Y-15148632D01*
X25890568Y-14924008D01*
X25783343Y-14713567D01*
X25644517Y-14522490D01*
X25477510Y-14355483D01*
X25286433Y-14216657D01*
X25286432Y-14216656D01*
X25286430Y-14216655D01*
X25075992Y-14109432D01*
X24851363Y-14036445D01*
X24618095Y-13999500D01*
X24618092Y-13999500D01*
X24381908Y-13999500D01*
X24381905Y-13999500D01*
X24148636Y-14036445D01*
X23924007Y-14109432D01*
X23713569Y-14216655D01*
X23522491Y-14355482D01*
X23355482Y-14522491D01*
X23216655Y-14713569D01*
X23109432Y-14924007D01*
X23036445Y-15148636D01*
X22999500Y-15381904D01*
X500500Y-15381904D01*
X500500Y-5002165D01*
X500594Y-4997847D01*
X510433Y-4772498D01*
X517434Y-4612144D01*
X518184Y-4603568D01*
X568295Y-4222942D01*
X569791Y-4214459D01*
X652883Y-3839655D01*
X655115Y-3831326D01*
X770553Y-3465202D01*
X773507Y-3457086D01*
X785072Y-3429166D01*
X920421Y-3102403D01*
X924056Y-3094609D01*
X1101325Y-2754079D01*
X1105632Y-2746618D01*
X1311913Y-2422820D01*
X1316851Y-2415769D01*
X1550564Y-2111189D01*
X1556083Y-2104612D01*
X1815481Y-1821528D01*
X1821528Y-1815481D01*
X2104612Y-1556083D01*
X2111189Y-1550564D01*
X2415769Y-1316851D01*
X2422820Y-1311913D01*
X2746618Y-1105632D01*
X2754079Y-1101325D01*
X3094609Y-924056D01*
X3102403Y-920421D01*
X3457093Y-773504D01*
X3465194Y-770555D01*
X3831334Y-655112D01*
X3839655Y-652883D01*
X4214459Y-569791D01*
X4222942Y-568295D01*
X4603568Y-518184D01*
X4612144Y-517434D01*
X4997847Y-500593D01*
X5002165Y-500500D01*
X5065892Y-500500D01*
X5101000Y-500500D01*
X5159191Y-519407D01*
G37*
%TD.AperFunction*%
%TD*%
M02*
